<svg xmlns="http://www.w3.org/2000/svg" viewBox="0 0 180.5 107.07"><defs><style>.cls-1{fill:#c99ca6;}</style></defs><g id="レイヤー_2" data-name="レイヤー 2"><g id="design"><path class="cls-1" d="M75.18,96.4a6.08,6.08,0,0,1,1.16.27,3.63,3.63,0,0,1,1.06.53,2.78,2.78,0,0,1,.76.87,2.47,2.47,0,0,1,.29,1.22,3.31,3.31,0,0,1-.3,1.44,3.06,3.06,0,0,1-.85,1.07,3.92,3.92,0,0,1-1.34.67,5.88,5.88,0,0,1-1.73.24H71.36l-.7,0-.73,0-.82,0a.27.27,0,0,1,0-.11.2.2,0,0,1,0-.09v-.09c0-.17.07-.27.2-.29a4.74,4.74,0,0,0,1-.28.52.52,0,0,0,.28-.5V92.19a.66.66,0,0,0-.07-.3.45.45,0,0,0-.21-.2,1.25,1.25,0,0,0-.38-.15c-.16,0-.36-.09-.6-.13s-.2-.14-.2-.35a.46.46,0,0,1,0-.14.36.36,0,0,1,0-.11l1.17.06,1.06,0h2.24a5.78,5.78,0,0,1,1.73.22,3.39,3.39,0,0,1,1.18.63,2.45,2.45,0,0,1,.66.92,2.85,2.85,0,0,1,.21,1.08,2.34,2.34,0,0,1-.16.82,2.82,2.82,0,0,1-.45.74,3.37,3.37,0,0,1-.68.62,3.31,3.31,0,0,1-.89.42Zm-2.67-.23a3.68,3.68,0,0,0,2.3-.57,2.15,2.15,0,0,0,.7-1.78,2,2,0,0,0-.7-1.64,3.84,3.84,0,0,0-2.3-.54h-.28v4.53Zm-.28,5.14a.49.49,0,0,0,.13.33,1,1,0,0,0,.32.2,1.76,1.76,0,0,0,.41.1,3,3,0,0,0,.42,0,6.84,6.84,0,0,0,1.25-.11,2.45,2.45,0,0,0,1-.39,1.7,1.7,0,0,0,.62-.73,2.69,2.69,0,0,0,.22-1.17,2.3,2.3,0,0,0-.9-2,4,4,0,0,0-2.46-.68h-1Z"/><path class="cls-1" d="M87.77,101a.43.43,0,0,1,.28-.13c.12,0,.23.11.34.31a6.32,6.32,0,0,1-.54.64,3.85,3.85,0,0,1-.74.55,3.65,3.65,0,0,1-1,.39,4.78,4.78,0,0,1-1.26.15,4,4,0,0,1-1.38-.24,3.15,3.15,0,0,1-1.15-.72,3.59,3.59,0,0,1-.8-1.22,4.5,4.5,0,0,1-.3-1.71,4.18,4.18,0,0,1,.35-1.71A4.26,4.26,0,0,1,82.52,96a4.4,4.4,0,0,1,1.25-.87,3.25,3.25,0,0,1,1.31-.31,3,3,0,0,1,2.47,1,4.07,4.07,0,0,1,.77,2.57.1.1,0,0,1-.11.11L83,98.71a4,4,0,0,0,.2,1.31,3.15,3.15,0,0,0,.56,1,2.57,2.57,0,0,0,.88.68,2.7,2.7,0,0,0,1.16.24,2.46,2.46,0,0,0,1.12-.27A2.91,2.91,0,0,0,87.77,101Zm-2.93-5.54a1.6,1.6,0,0,0-1.41.71A3.09,3.09,0,0,0,82.92,98l3.42-.16q.27,0,.27-.24a2.81,2.81,0,0,0-.11-.73,2.61,2.61,0,0,0-.32-.7,1.86,1.86,0,0,0-.56-.52A1.42,1.42,0,0,0,84.84,95.48Z"/><path class="cls-1" d="M98.7,102.22c.13,0,.2.13.21.38a2,2,0,0,1-1.2.33,1.81,1.81,0,0,1-.69-.12,1.43,1.43,0,0,1-.5-.32,1.39,1.39,0,0,1-.31-.45,2,2,0,0,1-.15-.53A2.5,2.5,0,0,1,95,102.63a3.32,3.32,0,0,1-1.45.3,5.3,5.3,0,0,1-.77-.06,2.36,2.36,0,0,1-.77-.27,1.69,1.69,0,0,1-.6-.56,1.73,1.73,0,0,1-.24-1,2,2,0,0,1,.32-1.14,2.6,2.6,0,0,1,.82-.76,5.4,5.4,0,0,1,1.09-.49c.39-.12.77-.22,1.14-.31l.57-.11c.17,0,.33-.09.46-.14s.28-.11.32-.2a1.31,1.31,0,0,0,.06-.49A2.83,2.83,0,0,0,95.61,96a1.24,1.24,0,0,0-1.17-.55,1.6,1.6,0,0,0-.52.07.83.83,0,0,0-.37.23,1.44,1.44,0,0,0-.25.41c-.07.17-.15.37-.22.6a.45.45,0,0,1-.25.29,3.92,3.92,0,0,1-.64.21l-.27.08-.28,0c-.12,0-.18-.12-.18-.38a1.37,1.37,0,0,1,.31-.8,3.41,3.41,0,0,1,.79-.71,5.08,5.08,0,0,1,1-.5,3.5,3.5,0,0,1,1.07-.19,5.76,5.76,0,0,1,1.15.11,2.15,2.15,0,0,1,.88.4,2,2,0,0,1,.56.78,3.53,3.53,0,0,1,.19,1.28v3.12a6.35,6.35,0,0,0,.05.92,1.28,1.28,0,0,0,.13.44.77.77,0,0,0,.28.34.63.63,0,0,0,.32.08.85.85,0,0,0,.28,0A.39.39,0,0,1,98.7,102.22Zm-2.77-3.54-.58.09q-.48.09-.93.21a3.17,3.17,0,0,0-.79.36,1.79,1.79,0,0,0-.56.57,1.64,1.64,0,0,0-.21.86,1.42,1.42,0,0,0,.36,1,1.2,1.2,0,0,0,.89.36,1.64,1.64,0,0,0,.68-.15,1.69,1.69,0,0,0,.59-.44,2.52,2.52,0,0,0,.4-.66,2.24,2.24,0,0,0,.15-.84Z"/><path class="cls-1" d="M102.15,96.71a1.39,1.39,0,0,0-.17-.81,1.28,1.28,0,0,0-.79-.26q-.24,0-.24-.24a.85.85,0,0,1,0-.25l.62,0A8.84,8.84,0,0,0,103,94.9a2.07,2.07,0,0,1,.44-.08c.17,0,.26.09.26.28v4.54a5.58,5.58,0,0,0,0,.84,2.13,2.13,0,0,0,.2.66,1,1,0,0,0,.42.43,1.31,1.31,0,0,0,.69.16,2.5,2.5,0,0,0,.89-.16,2.2,2.2,0,0,0,.77-.45,2.15,2.15,0,0,0,.54-.74,2.46,2.46,0,0,0,.2-1V96.71a1.42,1.42,0,0,0-.17-.8,1.26,1.26,0,0,0-.81-.27q-.24,0-.24-.24a.85.85,0,0,1,0-.25l.62,0a6,6,0,0,0,.69-.08,4.91,4.91,0,0,0,.69-.14,2.13,2.13,0,0,1,.45-.08c.17,0,.25.09.25.28V101a3.15,3.15,0,0,0,0,.5.54.54,0,0,0,.15.31.64.64,0,0,0,.3.18,1.58,1.58,0,0,0,.5.08c.15,0,.23.11.23.24a1.38,1.38,0,0,1,0,.26,4.64,4.64,0,0,0-.73.05l-.73.11-.62.11-.37,0c-.18,0-.26-.09-.26-.27v-1.51l-.31.35a5,5,0,0,1-.66.61,5.51,5.51,0,0,1-1,.6,2.65,2.65,0,0,1-1.15.26,2.09,2.09,0,0,1-1.67-.64,2.64,2.64,0,0,1-.55-1.8Z"/><path class="cls-1" d="M117,101.64a.41.41,0,0,1,.16-.11l.1,0c.11,0,.2.08.29.24a4.7,4.7,0,0,1-1,.85,2.19,2.19,0,0,1-1.16.33,3.1,3.1,0,0,1-.69-.08,1.24,1.24,0,0,1-.57-.32,1.68,1.68,0,0,1-.37-.65,3.43,3.43,0,0,1-.13-1.06v-5h-1.1v-.2a.59.59,0,0,1,0-.23.18.18,0,0,1,.19-.11,1.22,1.22,0,0,0,.8-.26,1.76,1.76,0,0,0,.51-.65c.14-.29.27-.56.38-.82s.23-.38.36-.38h.33V95h2.13a1.57,1.57,0,0,1-.08.57.3.3,0,0,1-.3.19h-1.75v4.51a5.91,5.91,0,0,0,.06.94,1.51,1.51,0,0,0,.16.54.54.54,0,0,0,.25.25,1.14,1.14,0,0,0,.33,0,1.2,1.2,0,0,0,.57-.13A2.84,2.84,0,0,0,117,101.64Z"/><path class="cls-1" d="M124.1,100.73c.19-.46.39-.94.6-1.43s.42-1,.61-1.39.35-.83.47-1.18A2.71,2.71,0,0,0,126,96a.27.27,0,0,0-.15-.25,1.92,1.92,0,0,0-.32-.14l-.31-.13a.21.21,0,0,1-.15-.21.89.89,0,0,1,0-.11.42.42,0,0,1,0-.12c.47,0,1,.05,1.5.05h.73a5.11,5.11,0,0,0,.58,0,.26.26,0,0,1,0,.12s0,.09,0,.11-.08.22-.24.26a2.4,2.4,0,0,0-.43.11.68.68,0,0,0-.25.14.76.76,0,0,0-.18.24,2.49,2.49,0,0,0-.19.42l-3.73,8.79a3.12,3.12,0,0,1-1.09,1.38,2.67,2.67,0,0,1-1.56.51.23.23,0,0,1-.21-.08.32.32,0,0,1-.07-.19,1.71,1.71,0,0,1,.06-.43,2.19,2.19,0,0,1,.14-.41,1.11,1.11,0,0,1,.21-.31.35.35,0,0,1,.25-.12,1,1,0,0,1,.26,0l.27,0a1.11,1.11,0,0,0,.72-.19,1.56,1.56,0,0,0,.42-.61l.93-2.16-2.8-6.23c-.09-.17-.16-.31-.22-.41a1.11,1.11,0,0,0-.2-.26.77.77,0,0,0-.25-.14,2.49,2.49,0,0,0-.38-.08.27.27,0,0,1-.24-.28.54.54,0,0,1,0-.11.25.25,0,0,1,0-.12c.25,0,.49,0,.74,0h2.19c.25,0,.51,0,.76,0a.26.26,0,0,1,0,.12s0,.09,0,.11-.08.23-.24.24a2.16,2.16,0,0,0-.56.15.26.26,0,0,0-.15.23,2.81,2.81,0,0,0,.11.46,6.41,6.41,0,0,0,.36.9Z"/><path class="cls-1" d="M140.28,97.06a.25.25,0,0,1-.21-.07.26.26,0,0,1-.08-.13,1.52,1.52,0,0,0-.59-1.06,2,2,0,0,0-1.16-.32,1.52,1.52,0,0,0-.93.3.94.94,0,0,0-.41.82,1,1,0,0,0,.37.79,3.84,3.84,0,0,0,1.36.63,9.87,9.87,0,0,1,1,.36,3.21,3.21,0,0,1,.76.49,1.86,1.86,0,0,1,.5.69,2.37,2.37,0,0,1,.18,1,2.53,2.53,0,0,1-.17.91,2.09,2.09,0,0,1-.53.76,2.51,2.51,0,0,1-.89.53,3.74,3.74,0,0,1-1.28.2,7.13,7.13,0,0,1-1.3-.14,4.18,4.18,0,0,1-1.3-.46l-.06-1c0-.35,0-.69,0-1h.18a.59.59,0,0,1,.31.07.26.26,0,0,1,.15.21,1.78,1.78,0,0,0,.59,1.22,2.06,2.06,0,0,0,1.44.47,1.77,1.77,0,0,0,1.15-.34,1.15,1.15,0,0,0,.4-.92,1.08,1.08,0,0,0-.44-.92,4.38,4.38,0,0,0-1.29-.57,4.71,4.71,0,0,1-1.68-.85,1.93,1.93,0,0,1-.61-1.55,2.25,2.25,0,0,1,.18-.89,2.05,2.05,0,0,1,.51-.72,2.59,2.59,0,0,1,.8-.5,3,3,0,0,1,1.06-.18,5,5,0,0,1,2.38.6q0,.15,0,.36l0,.43c0,.15,0,.31,0,.46s0,.29,0,.41Z"/><path class="cls-1" d="M151.44,102.22c.13,0,.2.13.22.38a2.07,2.07,0,0,1-1.2.33,1.86,1.86,0,0,1-.7-.12,1.43,1.43,0,0,1-.5-.32A1.39,1.39,0,0,1,149,102a2.46,2.46,0,0,1-.15-.53,2.5,2.5,0,0,1-1.08,1.12,3.31,3.31,0,0,1-1.44.3,5.43,5.43,0,0,1-.78-.06,2.36,2.36,0,0,1-.77-.27,1.69,1.69,0,0,1-.6-.56,1.73,1.73,0,0,1-.23-1,2,2,0,0,1,.31-1.14,2.71,2.71,0,0,1,.82-.76,5.66,5.66,0,0,1,1.09-.49c.4-.12.77-.22,1.14-.31l.57-.11c.18,0,.33-.09.46-.14s.28-.11.32-.2a1.26,1.26,0,0,0,.07-.49,2.72,2.72,0,0,0-.33-1.41,1.24,1.24,0,0,0-1.16-.55,1.62,1.62,0,0,0-.53.07.83.83,0,0,0-.37.23,1.44,1.44,0,0,0-.25.41c-.07.17-.14.37-.22.6a.44.44,0,0,1-.24.29,4.53,4.53,0,0,1-.65.21l-.27.08-.27,0c-.12,0-.18-.12-.18-.38a1.35,1.35,0,0,1,.3-.8,3.41,3.41,0,0,1,.79-.71,5.34,5.34,0,0,1,1-.5,3.56,3.56,0,0,1,1.07-.19,5.68,5.68,0,0,1,1.15.11,2.15,2.15,0,0,1,.88.4,2,2,0,0,1,.56.78,3.53,3.53,0,0,1,.19,1.28v3.12a6.35,6.35,0,0,0,.05.92,1.28,1.28,0,0,0,.13.44.72.72,0,0,0,.29.34.6.6,0,0,0,.31.08,1,1,0,0,0,.29,0A.33.33,0,0,1,151.44,102.22Zm-2.76-3.54-.59.09c-.32.06-.62.13-.92.21a3.09,3.09,0,0,0-.8.36,1.9,1.9,0,0,0-.56.57,1.64,1.64,0,0,0-.21.86,1.42,1.42,0,0,0,.36,1,1.2,1.2,0,0,0,.89.36,1.64,1.64,0,0,0,.68-.15,1.69,1.69,0,0,0,.59-.44,2.28,2.28,0,0,0,.4-.66,2.24,2.24,0,0,0,.16-.84Z"/><path class="cls-1" d="M157.87,102.8l-1-.06q-.49,0-1,0l-1,0-1,.06a1.23,1.23,0,0,1,0-.29.21.21,0,0,1,.17-.22,4.23,4.23,0,0,0,.74-.21c.23-.09.35-.23.35-.42V91.88a1.06,1.06,0,0,0-.23-.79,1.52,1.52,0,0,0-.86-.27c-.16,0-.24-.1-.24-.25a.81.81,0,0,1,0-.25l.65,0,.76-.07a4.71,4.71,0,0,0,.76-.14,2.08,2.08,0,0,1,.48-.09.26.26,0,0,1,.22.07.39.39,0,0,1,.05.2,6.71,6.71,0,0,1-.05.72,6.6,6.6,0,0,0-.06,1v9.73a.45.45,0,0,0,.34.42,3.7,3.7,0,0,0,.75.21.2.2,0,0,1,.15.22A1.23,1.23,0,0,1,157.87,102.8Z"/><path class="cls-1" d="M160.47,98.88a4.07,4.07,0,0,1,.32-1.59,4.22,4.22,0,0,1,.86-1.29,4.18,4.18,0,0,1,1.28-.86,4,4,0,0,1,1.59-.32,4.35,4.35,0,0,1,1.64.3,3.88,3.88,0,0,1,1.28.83,3.66,3.66,0,0,1,.84,1.28,4.4,4.4,0,0,1,.3,1.65,4,4,0,0,1-.32,1.59,4.18,4.18,0,0,1-.86,1.28,4.22,4.22,0,0,1-1.29.86,4,4,0,0,1-1.59.32,4.3,4.3,0,0,1-1.63-.3,3.78,3.78,0,0,1-1.28-.83,3.61,3.61,0,0,1-.84-1.27A4.4,4.4,0,0,1,160.47,98.88Zm1.71-.6a7.51,7.51,0,0,0,.14,1.38,5,5,0,0,0,.45,1.28,2.86,2.86,0,0,0,.77.94,1.81,1.81,0,0,0,1.15.38,2,2,0,0,0,1.61-.73,2.94,2.94,0,0,0,.57-1.87,7.83,7.83,0,0,0-.14-1.41,5.2,5.2,0,0,0-.43-1.35,2.9,2.9,0,0,0-.79-1,1.77,1.77,0,0,0-1.19-.4,2,2,0,0,0-1.55.66A3.16,3.16,0,0,0,162.18,98.28Z"/><path class="cls-1" d="M179.28,101.67c0,.19.11.32.33.41a3.68,3.68,0,0,0,.73.21.2.2,0,0,1,.16.22,1.23,1.23,0,0,1,0,.29l-.92-.06c-.31,0-.63,0-1,0s-.66,0-1,0l-1,.06a1.23,1.23,0,0,1,0-.29.21.21,0,0,1,.17-.22,3.48,3.48,0,0,0,.69-.21.44.44,0,0,0,.31-.41V98.11a5.31,5.31,0,0,0-.06-.83,1.7,1.7,0,0,0-.21-.67,1.13,1.13,0,0,0-.41-.43,1.27,1.27,0,0,0-.68-.16,2.5,2.5,0,0,0-.89.16,2.3,2.3,0,0,0-.77.45,2.22,2.22,0,0,0-.53.74,2.41,2.41,0,0,0-.2,1v3.3a.44.44,0,0,0,.32.41,3.59,3.59,0,0,0,.68.21.2.2,0,0,1,.16.22,1.89,1.89,0,0,1,0,.29l-.93-.06c-.3,0-.63,0-1,0s-.69,0-1,0l-.93.06a1.89,1.89,0,0,1,0-.29.2.2,0,0,1,.16-.22,3.68,3.68,0,0,0,.73-.21.44.44,0,0,0,.32-.42v-5a1.24,1.24,0,0,0-.19-.78,1.17,1.17,0,0,0-.82-.29.24.24,0,0,1-.24-.25.85.85,0,0,1,0-.24l.66,0,.7-.06c.28,0,.53-.1.76-.16a2.5,2.5,0,0,1,.47-.08c.17,0,.26.09.26.28a4.83,4.83,0,0,1-.05.6,5.91,5.91,0,0,0-.06.94,7.7,7.7,0,0,1,1.5-1.34,2.71,2.71,0,0,1,1.56-.48,2.07,2.07,0,0,1,1.66.65,2.66,2.66,0,0,1,.55,1.79Z"/><path class="cls-1" d="M75.26,33.67a3.9,3.9,0,0,1-2.13-3.57c0-1.65,1.09-3,3.27-4.06a6.38,6.38,0,0,1-2.21-2.26,6.94,6.94,0,0,1-.81-3.5,5.75,5.75,0,0,1,.67-2.68,7.82,7.82,0,0,1,1.8-2.28,8.92,8.92,0,0,1,2.61-1.56,8.45,8.45,0,0,1,3.1-.57,10.87,10.87,0,0,1,4,.6,9.56,9.56,0,0,1,2.57,1.48L93,13.14a2,2,0,0,1,.8.92,2.8,2.8,0,0,1,.25,1.07c0,.72-.25,1.09-.75,1.09l-1.78,0a11.42,11.42,0,0,0-2.29.29,6,6,0,0,1,1.19,3.77,5.9,5.9,0,0,1-.69,2.83,6.87,6.87,0,0,1-1.88,2.21A9.07,9.07,0,0,1,85,26.7a11.3,11.3,0,0,1-3.47.53,15.71,15.71,0,0,1-2-.13,8.56,8.56,0,0,1-1.78-.42A5.18,5.18,0,0,0,76,27.87,1.82,1.82,0,0,0,75.51,29a1.33,1.33,0,0,0,.25.77,1.9,1.9,0,0,0,.91.64,7.71,7.71,0,0,0,1.89.45,22,22,0,0,0,3.1.17,24.57,24.57,0,0,1,4.21.35,11.9,11.9,0,0,1,3.5,1.14,6.45,6.45,0,0,1,2.38,2.08,5.48,5.48,0,0,1,.87,3.13,8.18,8.18,0,0,1-.82,3.67,8.43,8.43,0,0,1-2.28,2.8A10.53,10.53,0,0,1,86,46a15.67,15.67,0,0,1-4.49.62,13.46,13.46,0,0,1-7.29-1.69,6,6,0,0,1-2.63-5.41,5.64,5.64,0,0,1,.35-2,7.33,7.33,0,0,1,.87-1.67A6.05,6.05,0,0,1,74,34.57,8.8,8.8,0,0,1,75.26,33.67Zm1.19.6a4.38,4.38,0,0,0-1.34,2.87,7.16,7.16,0,0,0,0,.8v.84a5.57,5.57,0,0,0,2,3.92A7.32,7.32,0,0,0,79.38,44a9.56,9.56,0,0,0,3.22.49q3.42,0,5-1.51a5,5,0,0,0,1.57-3.74,3.9,3.9,0,0,0-.4-1.74,3.42,3.42,0,0,0-1.34-1.36,8.18,8.18,0,0,0-2.48-.9,19.39,19.39,0,0,0-3.82-.32,20.35,20.35,0,0,1-2.5-.15A9.82,9.82,0,0,1,76.45,34.27Zm5.6-8.78A3.79,3.79,0,0,0,85,24.3,4.63,4.63,0,0,0,86.07,21a10.42,10.42,0,0,0-.22-2.16,5.87,5.87,0,0,0-.77-1.93,4.32,4.32,0,0,0-1.46-1.42A4.51,4.51,0,0,0,81.31,15a3.5,3.5,0,0,0-2.75,1.14,4.51,4.51,0,0,0-1,3.12,12.28,12.28,0,0,0,.22,2.26,6.53,6.53,0,0,0,.75,2,4.14,4.14,0,0,0,1.39,1.43A3.9,3.9,0,0,0,82.05,25.49Z"/><path class="cls-1" d="M111.45,35l-2.63-.17c-.9,0-1.8-.08-2.7-.08s-1.83,0-2.77.08-1.83.11-2.66.17a3.92,3.92,0,0,1-.1-.79.55.55,0,0,1,.45-.6,10.62,10.62,0,0,0,2-.57,1.23,1.23,0,0,0,.94-1.16V5.16A2.87,2.87,0,0,0,103.39,3,4.1,4.1,0,0,0,101,2.28a.66.66,0,0,1-.65-.69,3.35,3.35,0,0,1,.1-.7c.43,0,1,0,1.79-.07s1.45-.11,2.08-.18a14.57,14.57,0,0,0,2.06-.39,5.46,5.46,0,0,1,1.3-.25.75.75,0,0,1,.61.2.87.87,0,0,1,.15.54,14.8,14.8,0,0,1-.15,2,19.88,19.88,0,0,0-.15,2.61V31.84A1.22,1.22,0,0,0,109.1,33a9.7,9.7,0,0,0,2.05.57.54.54,0,0,1,.4.6A3.92,3.92,0,0,1,111.45,35Z"/><path class="cls-1" d="M117.84,24.25a10.81,10.81,0,0,1,.87-4.31,11,11,0,0,1,2.35-3.53,11.16,11.16,0,0,1,3.5-2.35,10.78,10.78,0,0,1,4.34-.87,11.72,11.72,0,0,1,4.46.82,10.45,10.45,0,0,1,3.5,2.26,10.16,10.16,0,0,1,2.28,3.49,12.15,12.15,0,0,1,.82,4.49,10.82,10.82,0,0,1-.87,4.34,11,11,0,0,1-5.85,5.85,10.82,10.82,0,0,1-4.34.87,11.81,11.81,0,0,1-4.47-.82,10.41,10.41,0,0,1-3.49-2.26,9.8,9.8,0,0,1-2.28-3.47A11.88,11.88,0,0,1,117.84,24.25Zm4.66-1.64a18.32,18.32,0,0,0,.4,3.77,13.25,13.25,0,0,0,1.21,3.5,8,8,0,0,0,2.11,2.58,4.87,4.87,0,0,0,3.12,1,5.26,5.26,0,0,0,4.39-2,8,8,0,0,0,1.56-5.11,20.93,20.93,0,0,0-.37-3.84,13.62,13.62,0,0,0-1.19-3.67,8,8,0,0,0-2.13-2.75A4.91,4.91,0,0,0,128.35,15a5.4,5.4,0,0,0-4.24,1.81C123,18,122.5,20,122.5,22.61Z"/><path class="cls-1" d="M170.05,29.31c.46-1.22,1-2.48,1.49-3.77s1-2.52,1.46-3.7.81-2.24,1.09-3.22a9,9,0,0,0,.42-2.35.72.72,0,0,0-.42-.67,5.07,5.07,0,0,0-.92-.38,5.73,5.73,0,0,1-.91-.34.63.63,0,0,1-.43-.6,1.4,1.4,0,0,1,.15-.64q2.09.15,4.17.15c.66,0,1.25,0,1.78,0s1.08-.06,1.64-.12a.66.66,0,0,1,.12.34,2.44,2.44,0,0,1,0,.3.63.63,0,0,1-.65.7,6.42,6.42,0,0,0-.91.22,2.09,2.09,0,0,0-.67.37,2.17,2.17,0,0,0-.52.7c-.15.29-.32.69-.52,1.19l-6.9,17.75a3.06,3.06,0,0,1-.79.1.77.77,0,0,1-.62-.25,5.81,5.81,0,0,1-.67-1.39l-5.55-13.49-5.86,15a4.11,4.11,0,0,1-.84.1,1,1,0,0,1-.87-.67c-.21-.45-.45-1-.72-1.61l-6.39-15.57a9.3,9.3,0,0,0-.55-1.19,2.71,2.71,0,0,0-.52-.7,1.67,1.67,0,0,0-.64-.35c-.25-.06-.54-.13-.87-.19a.73.73,0,0,1-.65-.75,1.4,1.4,0,0,1,.15-.64c.66.06,1.37.11,2.14.12s1.53,0,2.33,0h1.68c.73,0,1.41,0,2,0l1.93-.1a.77.77,0,0,1,.12.34,2.44,2.44,0,0,1,0,.3c0,.4-.22.61-.65.65-1.52.23-2.28.59-2.28,1.09a16.85,16.85,0,0,0,1.19,3.67l3.82,9.57,6-15.52c.13-.37.33-.55.6-.55a1.43,1.43,0,0,1,.44.1Z"/><path class="cls-1" d="M84.26,60.18a.83.83,0,0,1-.57-.17.76.76,0,0,1-.22-.37,4.14,4.14,0,0,0-1.61-2.9,5.46,5.46,0,0,0-3.15-.87,4.21,4.21,0,0,0-2.56.82A2.63,2.63,0,0,0,75,58.94a2.75,2.75,0,0,0,1,2.16,11.16,11.16,0,0,0,3.7,1.71,24.54,24.54,0,0,1,2.65,1,8,8,0,0,1,2.08,1.32A5.41,5.41,0,0,1,85.85,67a7.09,7.09,0,0,1,0,5.13,5.53,5.53,0,0,1-1.44,2.09A7.2,7.2,0,0,1,82,75.65a9.83,9.83,0,0,1-3.49.55A19,19,0,0,1,75,75.83a11.46,11.46,0,0,1-3.54-1.27q-.11-1.29-.18-2.7c0-.94-.07-1.89-.07-2.85h.49a2,2,0,0,1,.85.17.7.7,0,0,1,.39.57,4.94,4.94,0,0,0,1.62,3.35,5.7,5.7,0,0,0,3.94,1.26,4.72,4.72,0,0,0,3.12-.91,3.1,3.1,0,0,0,1.09-2.51,2.89,2.89,0,0,0-1.19-2.5A11.61,11.61,0,0,0,78,66.88a12.5,12.5,0,0,1-4.58-2.33,5.28,5.28,0,0,1-1.67-4.22,6,6,0,0,1,.5-2.43,5.87,5.87,0,0,1,1.39-2,6.53,6.53,0,0,1,2.18-1.34,8,8,0,0,1,2.88-.5,13.36,13.36,0,0,1,3.74.52,12.2,12.2,0,0,1,2.75,1.12c0,.26.07.59.1,1s.06.77.08,1.19,0,.82,0,1.24,0,.78,0,1.11Z"/><path class="cls-1" d="M105.92,72.68a1.1,1.1,0,0,1,.42-.3,1.28,1.28,0,0,1,.28,0c.29,0,.56.22.79.65a12.26,12.26,0,0,1-2.78,2.33,6.1,6.1,0,0,1-3.17.89A7.77,7.77,0,0,1,99.57,76,3.26,3.26,0,0,1,98,75.11a4.47,4.47,0,0,1-1-1.76,9.34,9.34,0,0,1-.37-2.9V56.76h-3v-.55a1.53,1.53,0,0,1,.13-.64.5.5,0,0,1,.52-.3,3.33,3.33,0,0,0,2.18-.69,5.48,5.48,0,0,0,1.39-1.79c.39-.79.74-1.53,1-2.23s.63-1,1-1h.89v5.16h5.81a4.13,4.13,0,0,1-.23,1.56.81.81,0,0,1-.82.52h-4.76v12.3a17.24,17.24,0,0,0,.15,2.55,4.39,4.39,0,0,0,.45,1.49,1.42,1.42,0,0,0,.69.67,2.57,2.57,0,0,0,.9.15,3.45,3.45,0,0,0,1.56-.37A9.23,9.23,0,0,0,105.92,72.68Z"/><path class="cls-1" d="M126.49,70.2c.5-1.26,1-2.55,1.64-3.89s1.15-2.61,1.66-3.8.93-2.26,1.27-3.22a7.36,7.36,0,0,0,.49-2.13.72.72,0,0,0-.4-.67,6.21,6.21,0,0,0-.86-.4c-.32-.12-.61-.23-.87-.35a.57.57,0,0,1-.4-.57,1.58,1.58,0,0,1,0-.29c0-.14.07-.25.1-.35,1.29.1,2.66.15,4.12.15q1.14,0,2,0a13.17,13.17,0,0,0,1.59-.12.91.91,0,0,1,.12.35,2.16,2.16,0,0,1,0,.29c0,.37-.22.6-.65.7a11.37,11.37,0,0,0-1.16.29,2,2,0,0,0-.7.4,2.41,2.41,0,0,0-.49.65,9.25,9.25,0,0,0-.53,1.14l-10.16,24a8.41,8.41,0,0,1-3,3.77,7.32,7.32,0,0,1-4.26,1.39.66.66,0,0,1-.57-.23.8.8,0,0,1-.18-.52,4.93,4.93,0,0,1,.15-1.16,5.27,5.27,0,0,1,.4-1.14,3.31,3.31,0,0,1,.57-.85,1,1,0,0,1,.67-.32,3.24,3.24,0,0,1,.72.08,3.14,3.14,0,0,0,.72.07,3.1,3.1,0,0,0,2-.52,4.31,4.31,0,0,0,1.14-1.66l2.53-5.9-7.64-17c-.23-.47-.43-.84-.59-1.12a3,3,0,0,0-.55-.69,1.77,1.77,0,0,0-.69-.4,7.08,7.08,0,0,0-1-.22.73.73,0,0,1-.65-.75,2.16,2.16,0,0,1,0-.29.77.77,0,0,1,.12-.35q1,.11,2,.12t2.31,0H119c.8,0,1.54,0,2.24,0s1.38,0,2.08-.12a.67.67,0,0,1,.12.35,2.16,2.16,0,0,1,0,.29c0,.4-.22.62-.65.65a5.28,5.28,0,0,0-1.53.42.68.68,0,0,0-.4.62,6.39,6.39,0,0,0,.3,1.24,19.72,19.72,0,0,0,1,2.48Z"/><path class="cls-1" d="M152.47,75.85l-2.63-.17c-.9-.05-1.8-.08-2.7-.08s-1.83,0-2.77.08-1.84.11-2.66.17a3.92,3.92,0,0,1-.1-.79.55.55,0,0,1,.44-.6,10.52,10.52,0,0,0,2-.57,1.23,1.23,0,0,0,.94-1.16V46.05a2.92,2.92,0,0,0-.62-2.16,4.11,4.11,0,0,0-2.36-.72.65.65,0,0,1-.64-.69,2.8,2.8,0,0,1,.1-.7c.43,0,1,0,1.78-.07s1.46-.11,2.09-.17a16,16,0,0,0,2.06-.4,5.38,5.38,0,0,1,1.3-.25.73.73,0,0,1,.6.2.87.87,0,0,1,.15.54,14.8,14.8,0,0,1-.15,2,22.09,22.09,0,0,0-.14,2.61V72.73a1.22,1.22,0,0,0,.91,1.16,9.8,9.8,0,0,0,2.06.57.54.54,0,0,1,.4.6A4.82,4.82,0,0,1,152.47,75.85Z"/><path class="cls-1" d="M176.76,71a1,1,0,0,1,.75-.34c.32,0,.64.28.93.84A14.62,14.62,0,0,1,177,73.22a9.82,9.82,0,0,1-2,1.52,11.11,11.11,0,0,1-2.65,1.06,13.19,13.19,0,0,1-3.43.4,11.26,11.26,0,0,1-3.77-.64,8.57,8.57,0,0,1-3.14-2,9.91,9.91,0,0,1-2.19-3.32,12.28,12.28,0,0,1-.82-4.66,11.2,11.2,0,0,1,1-4.66,12,12,0,0,1,2.51-3.65,11.77,11.77,0,0,1,3.39-2.36,8.73,8.73,0,0,1,3.6-.84q4.61,0,6.72,2.68a11,11,0,0,1,2.11,7,.27.27,0,0,1-.3.3l-14.33.64a11.43,11.43,0,0,0,.54,3.58,8.5,8.5,0,0,0,1.53,2.82,6.82,6.82,0,0,0,2.4,1.86,7.29,7.29,0,0,0,3.19.67,6.68,6.68,0,0,0,3-.74A8,8,0,0,0,176.76,71Zm-8-15.12a4.45,4.45,0,0,0-3.85,1.93,8.53,8.53,0,0,0-1.38,5.06l9.32-.45c.5,0,.74-.21.74-.64a7.2,7.2,0,0,0-.29-2,6.62,6.62,0,0,0-.89-1.9,5.15,5.15,0,0,0-1.5-1.44A4,4,0,0,0,168.75,55.87Z"/><path class="cls-1" d="M67.48,2.78A5.59,5.59,0,0,0,65.84.61a.35.35,0,0,0-.38,0L48.89,7.76l-.52-.43a32.16,32.16,0,0,0-8.5-4.9C36.64,1.14,32.23.48,26.77.48A27.85,27.85,0,0,0,16.61,2.35,29.09,29.09,0,0,0,8.07,7.48a25.21,25.21,0,0,0-5.91,7.44A18.6,18.6,0,0,0,0,23.54,22.45,22.45,0,0,0,2.64,34.89a20.52,20.52,0,0,0,3.71,4.68l.56.54-.31.71a20.18,20.18,0,0,0-1.72,8.27c0,6.23,1.79,10.81,5.46,14s9.05,5.93,15.73,8c5.55,1.65,9.82,3.56,12.71,5.65a11.35,11.35,0,0,1,4.63,9.7,12,12,0,0,1-4.22,9.65c-2.75,2.31-6.69,3.48-11.7,3.48-6.18,0-11.09-1.59-14.59-4.72a18.46,18.46,0,0,1-6-12.5,1.37,1.37,0,0,0-.8-1.12,5.58,5.58,0,0,0-2.46-.49H3.34a.36.36,0,0,0-.26.11.38.38,0,0,0-.11.26c0,2.86.11,5.71.25,8.5.17,3.12.35,6,.55,8.68a.37.37,0,0,0,.2.3,40.31,40.31,0,0,0,11.43,3.94,67.33,67.33,0,0,0,12.44,1.29,33.7,33.7,0,0,0,11.73-1.85,24.55,24.55,0,0,0,8.18-4.83,18.86,18.86,0,0,0,4.78-6.92,22.48,22.48,0,0,0,1.58-8.31A21.76,21.76,0,0,0,52.46,73a18,18,0,0,0-4.52-6.25,27.67,27.67,0,0,0-7-4.44,82.34,82.34,0,0,0-9.2-3.44c-6.49-2-10.86-4.08-13.38-6.23A10.75,10.75,0,0,1,14.51,46l-.27-1.71,1.66.47a28.73,28.73,0,0,0,4.26.88,51.55,51.55,0,0,0,6.61.41,37.94,37.94,0,0,0,11.49-1.72,30.19,30.19,0,0,0,9.29-4.72,22.59,22.59,0,0,0,6.12-7.17,19,19,0,0,0,2.23-9.1,19.3,19.3,0,0,0-3.82-12.16L51,9.83l1.69-.38a38,38,0,0,1,8-1l6.14.17c1,0,1.38-.81,1.38-2.61A8.08,8.08,0,0,0,67.48,2.78ZM43.24,26.07c0,5-1.34,9-4,11.89a14,14,0,0,1-10.78,4.42,14.75,14.75,0,0,1-7.94-2,15.23,15.23,0,0,1-5.09-5.28,23,23,0,0,1-2.66-7.18A40.24,40.24,0,0,1,12,20c0-4.76,1.26-8.59,3.75-11.38A13,13,0,0,1,25.92,4.36a16.37,16.37,0,0,1,8.42,2,15.83,15.83,0,0,1,5.36,5.18,21.13,21.13,0,0,1,2.76,7A37,37,0,0,1,43.24,26.07Z"/></g></g></svg>