<?xml version="1.0" encoding="utf-8"?>
<!-- Generator: Adobe Illustrator 26.2.1, SVG Export Plug-In . SVG Version: 6.00 Build 0)  -->
<svg version="1.1" id="レイヤー_1" xmlns="http://www.w3.org/2000/svg" xmlns:xlink="http://www.w3.org/1999/xlink" x="0px"
	 y="0px" viewBox="0 0 180.5 107.1" style="enable-background:new 0 0 180.5 107.1;" xml:space="preserve">
<style type="text/css">
	.st0{fill:#DD5C57;}
</style>
<g id="レイヤー_2_00000178186598353765684580000016858994192079484558_">
	<g id="design">
		<path class="st0" d="M75.2,96.4c0.4,0.1,0.8,0.1,1.2,0.3c0.4,0.1,0.7,0.3,1.1,0.5c0.3,0.2,0.6,0.5,0.8,0.9
			c0.2,0.4,0.3,0.8,0.3,1.2c0,0.5-0.1,1-0.3,1.4c-0.2,0.4-0.5,0.8-0.8,1.1c-0.4,0.3-0.9,0.5-1.3,0.7c-0.6,0.2-1.1,0.2-1.7,0.2h-2.9
			h-0.7h-0.7h-0.8c0,0,0-0.1,0-0.1c0,0,0-0.1,0-0.1v-0.1c0-0.2,0.1-0.3,0.2-0.3c0.3-0.1,0.7-0.2,1-0.3c0.2-0.1,0.3-0.3,0.3-0.5v-9.2
			c0-0.1,0-0.2-0.1-0.3c0-0.1-0.1-0.2-0.2-0.2c-0.1-0.1-0.2-0.1-0.4-0.2c-0.2,0-0.4-0.1-0.6-0.1s-0.2-0.1-0.2-0.3c0,0,0-0.1,0-0.1
			c0,0,0-0.1,0-0.1l1.2,0.1h1.1h2.2c0.6,0,1.2,0.1,1.7,0.2c0.4,0.1,0.8,0.3,1.2,0.6c0.3,0.3,0.5,0.6,0.7,0.9
			c0.1,0.3,0.2,0.7,0.2,1.1c0,0.3-0.1,0.6-0.2,0.8c-0.1,0.3-0.3,0.5-0.4,0.7c-0.2,0.2-0.4,0.4-0.7,0.6
			C75.8,96.1,75.5,96.2,75.2,96.4L75.2,96.4z M72.5,96.2c0.8,0.1,1.6-0.1,2.3-0.6c0.5-0.5,0.8-1.1,0.7-1.8c0-0.6-0.2-1.2-0.7-1.6
			c-0.7-0.4-1.5-0.6-2.3-0.5h-0.3v4.5H72.5z M72.2,101.3c0,0.1,0,0.2,0.1,0.3c0.1,0.1,0.2,0.2,0.3,0.2c0.1,0,0.3,0.1,0.4,0.1
			c0.1,0,0.3,0,0.4,0c0.4,0,0.8,0,1.2-0.1c0.4-0.1,0.7-0.2,1-0.4c0.3-0.2,0.5-0.4,0.6-0.7c0.2-0.4,0.2-0.8,0.2-1.2
			c0.1-0.8-0.3-1.5-0.9-2c-0.7-0.5-1.6-0.7-2.5-0.7h-1L72.2,101.3z"/>
		<path class="st0" d="M87.8,101c0.1-0.1,0.2-0.1,0.3-0.1c0.1,0,0.2,0.1,0.3,0.3c-0.2,0.2-0.3,0.4-0.5,0.6c-0.2,0.2-0.5,0.4-0.7,0.6
			c-0.3,0.2-0.6,0.3-1,0.4c-0.4,0.1-0.8,0.2-1.3,0.2c-0.5,0-0.9-0.1-1.4-0.2c-0.4-0.2-0.8-0.4-1.2-0.7c-0.3-0.3-0.6-0.8-0.8-1.2
			c-0.2-0.5-0.3-1.1-0.3-1.7c0-0.6,0.1-1.2,0.3-1.7c0.2-0.5,0.6-0.9,1-1.3c0.4-0.4,0.8-0.7,1.2-0.9c0.4-0.2,0.9-0.3,1.3-0.3
			c0.9-0.1,1.8,0.3,2.5,1c0.5,0.7,0.8,1.7,0.8,2.6c0,0.1,0,0.1-0.1,0.1c0,0,0,0,0,0L83,98.7c0,0.4,0.1,0.9,0.2,1.3
			c0.1,0.4,0.3,0.7,0.6,1c0.2,0.3,0.5,0.5,0.9,0.7c0.4,0.2,0.8,0.2,1.2,0.2c0.4,0,0.8-0.1,1.1-0.3C87.2,101.5,87.5,101.3,87.8,101z
			 M84.8,95.5c-0.6,0-1.1,0.2-1.4,0.7c-0.4,0.5-0.5,1.2-0.5,1.8l3.4-0.2c0.2,0,0.3-0.1,0.3-0.2c0-0.2,0-0.5-0.1-0.7
			c-0.1-0.2-0.2-0.5-0.3-0.7c-0.1-0.2-0.3-0.4-0.6-0.5C85.4,95.5,85.1,95.5,84.8,95.5L84.8,95.5z"/>
		<path class="st0" d="M98.7,102.2c0.1,0,0.2,0.1,0.2,0.4c-0.4,0.2-0.8,0.4-1.2,0.3c-0.2,0-0.5,0-0.7-0.1c-0.2-0.1-0.4-0.2-0.5-0.3
			c-0.1-0.1-0.2-0.3-0.3-0.4c-0.1-0.2-0.1-0.3-0.2-0.5c-0.2,0.5-0.6,0.9-1.1,1.1c-0.5,0.2-1,0.3-1.4,0.3c-0.3,0-0.5,0-0.8-0.1
			c-0.3,0-0.5-0.1-0.8-0.3c-0.2-0.1-0.4-0.3-0.6-0.6c-0.2-0.3-0.3-0.7-0.2-1c0-0.4,0.1-0.8,0.3-1.1c0.2-0.3,0.5-0.6,0.8-0.8
			c0.3-0.2,0.7-0.4,1.1-0.5c0.4-0.1,0.8-0.2,1.1-0.3l0.6-0.1c0.2,0,0.3-0.1,0.5-0.1s0.3-0.1,0.3-0.2c0.1-0.2,0.1-0.3,0.1-0.5
			c0-0.5-0.1-1-0.3-1.4c-0.3-0.4-0.7-0.6-1.2-0.6c-0.2,0-0.4,0-0.5,0.1c-0.1,0-0.3,0.1-0.4,0.2c-0.1,0.1-0.2,0.3-0.2,0.4
			c-0.1,0.2-0.2,0.4-0.2,0.6c0,0.1-0.1,0.2-0.2,0.3c-0.2,0.1-0.4,0.2-0.6,0.2l-0.3,0.1h-0.3c-0.1,0-0.2-0.1-0.2-0.4
			c0-0.3,0.1-0.6,0.3-0.8c0.2-0.3,0.5-0.5,0.8-0.7c0.3-0.2,0.6-0.4,1-0.5c0.3-0.1,0.7-0.2,1.1-0.2c0.4,0,0.8,0,1.2,0.1
			c0.3,0.1,0.6,0.2,0.9,0.4c0.2,0.2,0.4,0.5,0.6,0.8c0.1,0.4,0.2,0.8,0.2,1.3v3.1c0,0.3,0,0.6,0.1,0.9c0,0.2,0.1,0.3,0.1,0.4
			c0.1,0.1,0.2,0.3,0.3,0.3c0.1,0.1,0.2,0.1,0.3,0.1c0.1,0,0.2,0,0.3,0C98.5,102.2,98.6,102.2,98.7,102.2z M95.9,98.7l-0.6,0.1
			c-0.3,0.1-0.6,0.1-0.9,0.2c-0.3,0.1-0.5,0.2-0.8,0.4c-0.2,0.1-0.4,0.3-0.6,0.6c-0.1,0.3-0.2,0.6-0.2,0.9c0,0.4,0.1,0.7,0.4,1
			c0.2,0.2,0.6,0.4,0.9,0.4c0.2,0,0.5-0.1,0.7-0.2c0.2-0.1,0.4-0.3,0.6-0.4c0.2-0.2,0.3-0.4,0.4-0.7c0.1-0.3,0.2-0.6,0.2-0.8V98.7z"
			/>
		<path class="st0" d="M102.2,96.7c0-0.3,0-0.6-0.2-0.8c-0.2-0.2-0.5-0.3-0.8-0.3c-0.2,0-0.2-0.1-0.2-0.2c0-0.1,0-0.2,0-0.2h0.6
			c0.5,0,1-0.1,1.4-0.2c0.1,0,0.3-0.1,0.4-0.1c0.2,0,0.3,0.1,0.3,0.3v4.5c0,0.3,0,0.6,0,0.8c0,0.2,0.1,0.5,0.2,0.7
			c0.1,0.2,0.2,0.3,0.4,0.4c0.2,0.1,0.4,0.2,0.7,0.2c0.3,0,0.6-0.1,0.9-0.2c0.3-0.1,0.5-0.2,0.8-0.4c0.2-0.2,0.4-0.5,0.5-0.7
			c0.1-0.3,0.2-0.7,0.2-1v-2.7c0-0.3,0-0.6-0.2-0.8c-0.2-0.2-0.5-0.3-0.8-0.3c-0.2,0-0.2-0.1-0.2-0.2c0-0.1,0-0.2,0-0.2h0.6
			c0.2,0,0.5,0,0.7-0.1c0.2,0,0.5-0.1,0.7-0.1c0.1,0,0.3-0.1,0.4-0.1c0.2,0,0.2,0.1,0.2,0.3v5.9c0,0.2,0,0.3,0,0.5
			c0,0.1,0.1,0.2,0.2,0.3c0.1,0.1,0.2,0.1,0.3,0.2c0.2,0.1,0.3,0.1,0.5,0.1c0.2,0,0.2,0.1,0.2,0.2c0,0.1,0,0.2,0,0.3
			c-0.2,0-0.5,0-0.7,0.1l-0.7,0.1l-0.6,0.1h-0.4c-0.2,0-0.3-0.1-0.3-0.3v-1.5l-0.3,0.3c-0.2,0.2-0.4,0.4-0.7,0.6
			c-0.3,0.2-0.6,0.4-1,0.6c-0.4,0.2-0.8,0.3-1.2,0.3c-0.6,0-1.2-0.2-1.7-0.6c-0.4-0.5-0.6-1.2-0.6-1.8L102.2,96.7z"/>
		<path class="st0" d="M117,101.6c0,0,0.1-0.1,0.2-0.1h0.1c0.1,0,0.2,0.1,0.3,0.2c-0.3,0.3-0.6,0.6-1,0.8c-0.3,0.2-0.8,0.3-1.2,0.3
			c-0.2,0-0.5,0-0.7-0.1c-0.2-0.1-0.4-0.2-0.6-0.3c-0.2-0.2-0.3-0.4-0.4-0.7c-0.1-0.3-0.1-0.7-0.1-1.1v-5h-1.1v-0.2
			c0-0.1,0-0.2,0-0.2c0-0.1,0.1-0.1,0.2-0.1c0.3,0,0.6-0.1,0.8-0.3c0.2-0.2,0.4-0.4,0.5-0.7c0.1-0.3,0.3-0.6,0.4-0.8
			s0.2-0.4,0.4-0.4h0.3V95h2.1c0,0.2,0,0.4-0.1,0.6c0,0.1-0.2,0.2-0.3,0.2h-1.8v4.5c0,0.3,0,0.6,0.1,0.9c0,0.2,0.1,0.4,0.2,0.5
			c0.1,0.1,0.1,0.2,0.2,0.2c0.1,0,0.2,0,0.3,0c0.2,0,0.4,0,0.6-0.1C116.7,101.8,116.8,101.7,117,101.6z"/>
		<path class="st0" d="M124.1,100.7c0.2-0.5,0.4-0.9,0.6-1.4s0.4-1,0.6-1.4s0.3-0.8,0.5-1.2c0.1-0.2,0.2-0.5,0.2-0.7
			c0-0.1-0.1-0.2-0.2-0.2c-0.1-0.1-0.2-0.1-0.3-0.1l-0.3-0.1c-0.1,0-0.2-0.1-0.2-0.2c0,0,0-0.1,0-0.1c0,0,0-0.1,0-0.1
			c0.5,0,1,0.1,1.5,0.1h0.7c0.2,0,0.4,0,0.6,0c0,0,0,0.1,0,0.1c0,0,0,0.1,0,0.1s-0.1,0.2-0.2,0.3c-0.1,0-0.3,0.1-0.4,0.1
			c-0.1,0-0.2,0.1-0.2,0.1c-0.1,0.1-0.1,0.1-0.2,0.2c-0.1,0.1-0.1,0.3-0.2,0.4l-3.7,8.8c-0.2,0.6-0.6,1-1.1,1.4
			c-0.5,0.3-1,0.5-1.6,0.5c-0.1,0-0.2,0-0.2-0.1c0-0.1-0.1-0.1-0.1-0.2c0-0.1,0-0.3,0.1-0.4c0-0.1,0.1-0.3,0.1-0.4
			c0.1-0.1,0.1-0.2,0.2-0.3c0.1-0.1,0.2-0.1,0.2-0.1c0.1,0,0.2,0,0.3,0h0.3c0.3,0,0.5,0,0.7-0.2c0.2-0.2,0.3-0.4,0.4-0.6l0.9-2.2
			l-2.8-6.2c-0.1-0.2-0.2-0.3-0.2-0.4c-0.1-0.1-0.1-0.2-0.2-0.3c-0.1-0.1-0.2-0.1-0.2-0.1c-0.1,0-0.3-0.1-0.4-0.1
			c-0.1,0-0.2-0.1-0.2-0.3c0,0,0-0.1,0-0.1c0,0,0-0.1,0-0.1c0.2,0,0.5,0,0.7,0h2.2c0.2,0,0.5,0,0.8,0c0,0,0,0.1,0,0.1
			c0,0,0,0.1,0,0.1s-0.1,0.2-0.2,0.2c-0.2,0-0.4,0.1-0.6,0.2c-0.1,0-0.1,0.1-0.2,0.2c0,0.2,0.1,0.3,0.1,0.5c0.1,0.3,0.2,0.6,0.4,0.9
			L124.1,100.7z"/>
		<path class="st0" d="M140.3,97.1c-0.1,0-0.2,0-0.2-0.1c0,0-0.1-0.1-0.1-0.1c0-0.4-0.3-0.8-0.6-1.1c-0.3-0.2-0.7-0.3-1.2-0.3
			c-0.3,0-0.7,0.1-0.9,0.3c-0.3,0.2-0.4,0.5-0.4,0.8c0,0.3,0.1,0.6,0.4,0.8c0.4,0.3,0.9,0.5,1.4,0.6c0.3,0.1,0.7,0.2,1,0.4
			c0.3,0.1,0.5,0.3,0.8,0.5c0.2,0.2,0.4,0.4,0.5,0.7c0.1,0.3,0.2,0.7,0.2,1c0,0.3-0.1,0.6-0.2,0.9c-0.1,0.3-0.3,0.5-0.5,0.8
			c-0.3,0.2-0.6,0.4-0.9,0.5c-0.4,0.1-0.8,0.2-1.3,0.2c-0.4,0-0.9-0.1-1.3-0.1c-0.5-0.1-0.9-0.2-1.3-0.5l-0.1-1c0-0.3,0-0.7,0-1h0.2
			c0.1,0,0.2,0,0.3,0.1c0.1,0,0.1,0.1,0.1,0.2c0,0.5,0.2,0.9,0.6,1.2c0.4,0.3,0.9,0.5,1.4,0.5c0.4,0,0.8-0.1,1.1-0.3
			c0.3-0.2,0.4-0.6,0.4-0.9c0-0.4-0.1-0.7-0.4-0.9c-0.4-0.3-0.8-0.5-1.3-0.6c-0.6-0.2-1.2-0.5-1.7-0.8c-0.4-0.4-0.7-1-0.6-1.6
			c0-0.3,0.1-0.6,0.2-0.9c0.1-0.3,0.3-0.5,0.5-0.7c0.2-0.2,0.5-0.4,0.8-0.5c0.3-0.1,0.7-0.2,1.1-0.2c0.8,0,1.6,0.2,2.4,0.6
			c0,0.1,0,0.2,0,0.4v0.4c0,0.2,0,0.3,0,0.5s0,0.3,0,0.4L140.3,97.1z"/>
		<path class="st0" d="M151.4,102.2c0.1,0,0.2,0.1,0.2,0.4c-0.4,0.2-0.8,0.3-1.2,0.3c-0.2,0-0.5,0-0.7-0.1c-0.2-0.1-0.4-0.2-0.5-0.3
			c-0.1-0.1-0.2-0.3-0.3-0.5c-0.1-0.2-0.1-0.3-0.1-0.5c-0.2,0.5-0.6,0.9-1.1,1.1c-0.5,0.2-0.9,0.3-1.4,0.3c-0.3,0-0.5,0-0.8-0.1
			c-0.3,0-0.5-0.1-0.8-0.3c-0.2-0.1-0.4-0.3-0.6-0.6c-0.2-0.3-0.3-0.7-0.2-1c0-0.4,0.1-0.8,0.3-1.1c0.2-0.3,0.5-0.6,0.8-0.8
			c0.3-0.2,0.7-0.4,1.1-0.5c0.4-0.1,0.8-0.2,1.1-0.3l0.6-0.1c0.2,0,0.3-0.1,0.5-0.1s0.3-0.1,0.3-0.2c0.1-0.2,0.1-0.3,0.1-0.5
			c0-0.5-0.1-1-0.3-1.4c-0.3-0.4-0.7-0.6-1.2-0.6c-0.2,0-0.4,0-0.5,0.1c-0.1,0-0.3,0.1-0.4,0.2c-0.1,0.1-0.2,0.3-0.2,0.4
			c-0.1,0.2-0.1,0.4-0.2,0.6c0,0.1-0.1,0.2-0.2,0.3c-0.2,0.1-0.4,0.2-0.6,0.2l-0.3,0.1h-0.3c-0.1,0-0.2-0.1-0.2-0.4
			c0-0.3,0.1-0.6,0.3-0.8c0.2-0.3,0.5-0.5,0.8-0.7c0.3-0.2,0.7-0.4,1-0.5c0.3-0.1,0.7-0.2,1.1-0.2c0.4,0,0.8,0,1.1,0.1
			c0.3,0.1,0.6,0.2,0.9,0.4c0.2,0.2,0.4,0.5,0.6,0.8c0.1,0.4,0.2,0.8,0.2,1.3v3.1c0,0.3,0,0.6,0.1,0.9c0,0.2,0.1,0.3,0.1,0.4
			c0.1,0.1,0.2,0.3,0.3,0.3c0.1,0.1,0.2,0.1,0.3,0.1c0.1,0,0.2,0,0.3,0C151.3,102.2,151.4,102.2,151.4,102.2z M148.7,98.7l-0.6,0.1
			c-0.3,0.1-0.6,0.1-0.9,0.2c-0.3,0.1-0.6,0.2-0.8,0.4c-0.2,0.1-0.4,0.3-0.6,0.6c-0.1,0.3-0.2,0.6-0.2,0.9c0,0.4,0.1,0.7,0.4,1
			c0.2,0.2,0.6,0.4,0.9,0.4c0.2,0,0.5-0.1,0.7-0.2c0.2-0.1,0.4-0.3,0.6-0.4c0.2-0.2,0.3-0.4,0.4-0.7c0.1-0.3,0.2-0.6,0.2-0.8
			L148.7,98.7z"/>
		<path class="st0" d="M157.9,102.8l-1-0.1c-0.3,0-0.7,0-1,0h-1l-1,0.1c0-0.1,0-0.2,0-0.3c0-0.1,0.1-0.2,0.2-0.2
			c0.3,0,0.5-0.1,0.7-0.2c0.2-0.1,0.4-0.2,0.4-0.4v-9.8c0-0.3-0.1-0.6-0.2-0.8c-0.3-0.2-0.6-0.3-0.9-0.3c-0.2,0-0.2-0.1-0.2-0.2
			c0-0.1,0-0.2,0-0.2h0.6l0.8-0.1c0.3,0,0.5-0.1,0.8-0.1c0.2,0,0.3-0.1,0.5-0.1c0.1,0,0.2,0,0.2,0.1c0,0.1,0.1,0.1,0.1,0.2
			c0,0.2,0,0.5-0.1,0.7c0,0.3-0.1,0.7-0.1,1v9.7c0,0.2,0.1,0.4,0.3,0.4c0.2,0.1,0.5,0.2,0.8,0.2c0.1,0,0.2,0.1,0.1,0.2
			C157.9,102.7,157.9,102.7,157.9,102.8z"/>
		<path class="st0" d="M160.5,98.9c0-0.5,0.1-1.1,0.3-1.6c0.2-0.5,0.5-0.9,0.9-1.3c0.4-0.4,0.8-0.7,1.3-0.9c0.5-0.2,1-0.3,1.6-0.3
			c0.6,0,1.1,0.1,1.6,0.3c0.5,0.2,0.9,0.5,1.3,0.8c0.4,0.4,0.7,0.8,0.8,1.3c0.2,0.5,0.3,1.1,0.3,1.7c0,0.5-0.1,1.1-0.3,1.6
			c-0.2,0.5-0.5,0.9-0.9,1.3c-0.4,0.4-0.8,0.7-1.3,0.9c-0.5,0.2-1,0.3-1.6,0.3c-0.6,0-1.1-0.1-1.6-0.3c-0.5-0.2-0.9-0.5-1.3-0.8
			c-0.4-0.4-0.7-0.8-0.8-1.3C160.6,100,160.5,99.4,160.5,98.9z M162.2,98.3c0,0.5,0.1,0.9,0.1,1.4c0.1,0.4,0.2,0.9,0.4,1.3
			c0.2,0.4,0.4,0.7,0.8,0.9c0.3,0.3,0.7,0.4,1.1,0.4c0.6,0,1.2-0.2,1.6-0.7c0.4-0.5,0.6-1.2,0.6-1.9c0-0.5-0.1-0.9-0.1-1.4
			c-0.1-0.5-0.2-0.9-0.4-1.3c-0.2-0.4-0.5-0.7-0.8-1c-0.3-0.3-0.8-0.4-1.2-0.4c-0.6,0-1.2,0.2-1.6,0.7
			C162.3,96.8,162.1,97.5,162.2,98.3L162.2,98.3z"/>
		<path class="st0" d="M179.3,101.7c0,0.2,0.1,0.3,0.3,0.4c0.2,0.1,0.5,0.2,0.7,0.2c0.1,0,0.2,0.1,0.2,0.2c0,0.1,0,0.2,0,0.3
			l-0.9-0.1c-0.3,0-0.6,0-1,0s-0.7,0-1,0l-1,0.1c0-0.1,0-0.2,0-0.3c0-0.1,0.1-0.2,0.2-0.2c0.2,0,0.5-0.1,0.7-0.2
			c0.2-0.1,0.3-0.2,0.3-0.4v-3.6c0-0.3,0-0.6-0.1-0.8c0-0.2-0.1-0.5-0.2-0.7c-0.1-0.2-0.2-0.3-0.4-0.4c-0.2-0.1-0.4-0.2-0.7-0.2
			c-0.3,0-0.6,0.1-0.9,0.2c-0.3,0.1-0.5,0.3-0.8,0.4c-0.2,0.2-0.4,0.5-0.5,0.7c-0.1,0.3-0.2,0.7-0.2,1v3.3c0,0.2,0.1,0.4,0.3,0.4
			c0.2,0.1,0.4,0.2,0.7,0.2c0.1,0,0.2,0.1,0.2,0.2c0,0.1,0,0.2,0,0.3l-0.9-0.1c-0.3,0-0.6,0-1,0s-0.7,0-1,0l-0.9,0.1
			c0-0.1,0-0.2,0-0.3c0-0.1,0.1-0.2,0.2-0.2c0.2,0,0.5-0.1,0.7-0.2c0.2-0.1,0.3-0.2,0.3-0.4v-5c0-0.3,0-0.5-0.2-0.8
			c-0.2-0.2-0.5-0.3-0.8-0.3c-0.1,0-0.2-0.1-0.2-0.2c0,0,0,0,0,0c0-0.1,0-0.2,0-0.2h0.7l0.7-0.1c0.3,0,0.5-0.1,0.8-0.2
			c0.2,0,0.3-0.1,0.5-0.1c0.2,0,0.3,0.1,0.3,0.3c0,0.2,0,0.4-0.1,0.6c0,0.3-0.1,0.6-0.1,0.9c0.4-0.5,0.9-1,1.5-1.3
			c0.5-0.3,1-0.5,1.6-0.5c0.6,0,1.2,0.2,1.7,0.7c0.4,0.5,0.6,1.1,0.6,1.8L179.3,101.7z"/>
		<path class="st0" d="M75.3,33.7c-1.3-0.7-2.2-2.1-2.1-3.6c0-1.6,1.1-3,3.3-4.1c-0.9-0.6-1.7-1.3-2.2-2.3c-0.6-1.1-0.9-2.3-0.8-3.5
			c0-0.9,0.2-1.9,0.7-2.7c0.5-0.9,1.1-1.6,1.8-2.3c0.8-0.7,1.7-1.2,2.6-1.6c1-0.4,2-0.6,3.1-0.6c1.4-0.1,2.7,0.2,4,0.6
			c0.9,0.4,1.8,0.9,2.6,1.5l4.9-2.1c0.4,0.2,0.6,0.5,0.8,0.9c0.2,0.3,0.2,0.7,0.2,1.1c0,0.7-0.2,1.1-0.8,1.1h-1.8
			c-0.8,0-1.5,0.1-2.3,0.3c0.8,1.1,1.2,2.4,1.2,3.8c0,1-0.2,2-0.7,2.8c-0.5,0.9-1.1,1.6-1.9,2.2C87,25.9,86,26.4,85,26.7
			c-1.1,0.4-2.3,0.5-3.5,0.5c-0.7,0-1.3,0-2-0.1c-0.6-0.1-1.2-0.2-1.8-0.4c-0.7,0.3-1.3,0.7-1.8,1.2c-0.3,0.3-0.5,0.7-0.5,1.1
			c0,0.3,0.1,0.5,0.2,0.8c0.2,0.3,0.5,0.5,0.9,0.6c0.6,0.2,1.2,0.4,1.9,0.5c1,0.1,2.1,0.2,3.1,0.2c1.4,0,2.8,0.1,4.2,0.4
			c1.2,0.2,2.4,0.6,3.5,1.1c1,0.5,1.8,1.2,2.4,2.1c0.6,0.9,0.9,2,0.9,3.1c0,1.3-0.3,2.5-0.8,3.7c-0.5,1.1-1.3,2-2.3,2.8
			c-1,0.8-2.2,1.4-3.5,1.8c-1.5,0.4-3,0.6-4.5,0.6c-2.5,0.1-5.1-0.4-7.3-1.7c-1.8-1.2-2.8-3.3-2.6-5.4c0-0.7,0.1-1.4,0.3-2
			c0.2-0.6,0.5-1.2,0.9-1.7c0.3-0.5,0.7-0.9,1.2-1.3C74.4,34.2,74.8,33.9,75.3,33.7z M76.5,34.3c-0.8,0.8-1.3,1.8-1.3,2.9
			c0,0.3,0,0.5,0,0.8v0.8c0.1,1.5,0.8,2.9,2,3.9c0.7,0.6,1.4,1,2.3,1.3c1,0.3,2.1,0.5,3.2,0.5c2.3,0,3.9-0.5,5-1.5
			c1-1,1.6-2.3,1.6-3.7c0-0.6-0.1-1.2-0.4-1.7c-0.3-0.6-0.8-1-1.3-1.4c-0.8-0.4-1.6-0.7-2.5-0.9c-1.3-0.2-2.5-0.3-3.8-0.3
			c-0.8,0-1.7,0-2.5-0.2C77.9,34.7,77.2,34.5,76.5,34.3z M82.1,25.5c1.1,0.1,2.2-0.4,2.9-1.2c0.8-0.9,1.2-2.1,1.1-3.3
			c0-0.7-0.1-1.4-0.2-2.2c-0.1-0.7-0.4-1.3-0.8-1.9c-0.4-0.6-0.9-1.1-1.5-1.4c-0.7-0.4-1.5-0.5-2.3-0.5c-1,0-2,0.4-2.8,1.1
			c-0.7,0.9-1.1,2-1,3.1c0,0.8,0.1,1.5,0.2,2.3c0.1,0.7,0.4,1.4,0.8,2c0.3,0.6,0.8,1.1,1.4,1.4C80.6,25.3,81.3,25.5,82.1,25.5z"/>
		<path class="st0" d="M111.4,35l-2.6-0.2c-0.9,0-1.8-0.1-2.7-0.1s-1.8,0-2.8,0.1s-1.8,0.1-2.7,0.2c-0.1-0.3-0.1-0.5-0.1-0.8
			c0-0.3,0.2-0.5,0.4-0.6c0.7-0.1,1.4-0.3,2-0.6c0.5-0.1,0.9-0.6,0.9-1.2V5.2c0.1-0.8-0.1-1.5-0.6-2.2c-0.7-0.5-1.5-0.7-2.4-0.7
			c-0.4,0-0.7-0.3-0.7-0.7c0,0,0,0,0,0c0-0.2,0-0.5,0.1-0.7c0.4,0,1,0,1.8-0.1s1.4-0.1,2.1-0.2c0.7-0.1,1.4-0.2,2.1-0.4
			c0.4-0.1,0.9-0.2,1.3-0.2c0.2,0,0.4,0,0.6,0.2c0.1,0.2,0.2,0.3,0.2,0.5c0,0.7-0.1,1.3-0.2,2c-0.1,0.9-0.2,1.7-0.2,2.6v26.5
			c0,0.6,0.4,1,1,1.2c0.7,0.3,1.3,0.5,2.1,0.6c0.3,0.1,0.4,0.3,0.4,0.6C111.5,34.4,111.5,34.7,111.4,35z"/>
		<path class="st0" d="M117.8,24.2c0-1.5,0.3-2.9,0.9-4.3c0.5-1.3,1.3-2.5,2.3-3.5c1-1,2.2-1.8,3.5-2.4c1.4-0.6,2.8-0.9,4.3-0.9
			c1.5,0,3,0.3,4.5,0.8c1.3,0.5,2.5,1.3,3.5,2.3c1,1,1.8,2.2,2.3,3.5c0.6,1.4,0.8,3,0.8,4.5c0,1.5-0.3,3-0.9,4.3
			c-1.1,2.6-3.2,4.7-5.9,5.9c-1.4,0.6-2.8,0.9-4.3,0.9c-1.5,0-3-0.3-4.5-0.8c-1.3-0.5-2.5-1.3-3.5-2.3c-1-1-1.8-2.2-2.3-3.5
			C118.1,27.3,117.8,25.8,117.8,24.2z M122.5,22.6c0,1.3,0.1,2.5,0.4,3.8c0.2,1.2,0.6,2.4,1.2,3.5c0.5,1,1.2,1.9,2.1,2.6
			c0.9,0.7,2,1,3.1,1c1.7,0.1,3.3-0.7,4.4-2c1.1-1.5,1.6-3.3,1.6-5.1c0-1.3-0.1-2.6-0.4-3.8c-0.2-1.3-0.6-2.5-1.2-3.7
			c-0.5-1.1-1.2-2-2.1-2.8c-0.9-0.7-2.1-1.1-3.2-1.1c-1.6-0.1-3.2,0.6-4.2,1.8C123,18,122.5,20,122.5,22.6z"/>
		<path class="st0" d="M170.1,29.3c0.5-1.2,1-2.5,1.5-3.8s1-2.5,1.5-3.7s0.8-2.2,1.1-3.2c0.2-0.8,0.4-1.6,0.4-2.4
			c0-0.3-0.2-0.6-0.4-0.7c-0.3-0.2-0.6-0.3-0.9-0.4c-0.3-0.1-0.6-0.2-0.9-0.3c-0.3-0.1-0.4-0.3-0.4-0.6c0-0.2,0-0.4,0.1-0.6
			c1.4,0.1,2.8,0.1,4.2,0.1c0.7,0,1.2,0,1.8,0s1.1-0.1,1.6-0.1c0.1,0.1,0.1,0.2,0.1,0.3c0,0.1,0,0.2,0,0.3c0,0.3-0.2,0.7-0.6,0.7
			c0,0-0.1,0-0.1,0c-0.3,0.1-0.6,0.1-0.9,0.2c-0.2,0.1-0.5,0.2-0.7,0.4c-0.2,0.2-0.4,0.4-0.5,0.7c-0.1,0.3-0.3,0.7-0.5,1.2
			l-6.9,17.8c-0.3,0.1-0.5,0.1-0.8,0.1c-0.2,0-0.5-0.1-0.6-0.2c-0.3-0.4-0.5-0.9-0.7-1.4l-5.6-13.5l-5.9,15
			c-0.3,0.1-0.6,0.1-0.8,0.1c-0.4,0-0.7-0.3-0.9-0.7c-0.2-0.5-0.4-1-0.7-1.6l-6.4-15.6c-0.2-0.4-0.3-0.8-0.6-1.2
			c-0.1-0.3-0.3-0.5-0.5-0.7c-0.2-0.2-0.4-0.3-0.6-0.4c-0.2-0.1-0.5-0.1-0.9-0.2c-0.4,0-0.7-0.4-0.6-0.8c0-0.2,0-0.4,0.1-0.6
			c0.7,0.1,1.4,0.1,2.1,0.1s1.5,0,2.3,0h1.7c0.7,0,1.4,0,2,0l1.9-0.1c0.1,0.1,0.1,0.2,0.1,0.3c0,0.1,0,0.2,0,0.3
			c0,0.4-0.2,0.6-0.6,0.6c-1.5,0.2-2.3,0.6-2.3,1.1c0.3,1.3,0.7,2.5,1.2,3.7l3.8,9.6l6-15.5c0.1-0.4,0.3-0.6,0.6-0.6
			c0.2,0,0.3,0,0.4,0.1L170.1,29.3z"/>
		<path class="st0" d="M84.3,60.2c-0.2,0-0.4,0-0.6-0.2c-0.1-0.1-0.2-0.2-0.2-0.4c-0.1-1.1-0.7-2.2-1.6-2.9c-0.9-0.6-2-0.9-3.2-0.9
			c-0.9,0-1.8,0.3-2.6,0.8C75.4,57.2,75,58,75,58.9c0,0.8,0.4,1.6,1,2.2c1.1,0.8,2.4,1.4,3.7,1.7c0.9,0.3,1.8,0.6,2.7,1
			c0.8,0.3,1.5,0.8,2.1,1.3c0.6,0.5,1.1,1.2,1.4,1.9c0.6,1.7,0.6,3.5,0,5.1c-0.3,0.8-0.8,1.5-1.4,2.1c-0.7,0.6-1.5,1.1-2.4,1.4
			c-1.1,0.4-2.3,0.6-3.5,0.6c-1.2,0-2.4-0.1-3.5-0.4c-1.2-0.2-2.4-0.7-3.5-1.3c-0.1-0.9-0.1-1.8-0.2-2.7c0-0.9-0.1-1.9-0.1-2.8h0.5
			c0.3,0,0.6,0.1,0.8,0.2c0.2,0.1,0.4,0.3,0.4,0.6c0.1,1.3,0.7,2.5,1.6,3.3c1.1,0.9,2.5,1.3,3.9,1.3c1.1,0.1,2.2-0.2,3.1-0.9
			c0.7-0.6,1.1-1.5,1.1-2.5c0.1-1-0.4-1.9-1.2-2.5c-1.1-0.7-2.3-1.2-3.5-1.6c-1.7-0.5-3.2-1.2-4.6-2.3c-1.2-1.1-1.8-2.6-1.7-4.2
			c0-0.8,0.2-1.7,0.5-2.4c0.3-0.8,0.8-1.4,1.4-2c0.6-0.6,1.4-1,2.2-1.3c0.9-0.3,1.9-0.5,2.9-0.5c1.3,0,2.5,0.2,3.7,0.5
			c1,0.3,1.9,0.6,2.8,1.1c0,0.3,0.1,0.6,0.1,1s0.1,0.8,0.1,1.2s0,0.8,0,1.2s0,0.8,0,1.1L84.3,60.2z"/>
		<path class="st0" d="M105.9,72.7c0.1-0.1,0.3-0.2,0.4-0.3c0.1,0,0.2,0,0.3,0c0.3,0,0.6,0.2,0.8,0.7c-0.8,0.9-1.7,1.7-2.8,2.3
			c-1,0.6-2.1,0.9-3.2,0.9c-0.6,0-1.3-0.1-1.9-0.2c-0.6-0.1-1.1-0.5-1.6-0.9c-0.5-0.5-0.8-1.1-1-1.8c-0.3-0.9-0.4-1.9-0.4-2.9V56.8
			h-3v-0.5c0-0.2,0-0.4,0.1-0.6c0.1-0.2,0.3-0.3,0.5-0.3c0.8,0,1.6-0.2,2.2-0.7c0.6-0.5,1.1-1.1,1.4-1.8c0.4-0.8,0.7-1.5,1-2.2
			s0.6-1,1-1h0.9v5.2h5.8c0,0.5-0.1,1.1-0.2,1.6c-0.1,0.3-0.5,0.5-0.8,0.5h-4.8v12.3c0,0.9,0,1.7,0.2,2.6c0.1,0.5,0.2,1,0.4,1.5
			c0.1,0.3,0.4,0.5,0.7,0.7c0.3,0.1,0.6,0.2,0.9,0.2c0.5,0,1.1-0.1,1.6-0.4C105,73.3,105.5,73,105.9,72.7z"/>
		<path class="st0" d="M126.5,70.2c0.5-1.3,1-2.6,1.6-3.9c0.6-1.3,1.1-2.6,1.7-3.8s0.9-2.3,1.3-3.2c0.3-0.7,0.4-1.4,0.5-2.1
			c0-0.3-0.1-0.5-0.4-0.7c-0.3-0.2-0.6-0.3-0.9-0.4c-0.3-0.1-0.6-0.2-0.9-0.3c-0.2-0.1-0.4-0.3-0.4-0.6c0-0.1,0-0.2,0-0.3
			c0-0.1,0.1-0.2,0.1-0.3c1.3,0.1,2.7,0.2,4.1,0.2c0.8,0,1.4,0,2,0c0.5,0,1.1,0,1.6-0.1c0.1,0.1,0.1,0.2,0.1,0.3c0,0.1,0,0.2,0,0.3
			c0,0.4-0.2,0.6-0.6,0.7c-0.4,0.1-0.8,0.2-1.2,0.3c-0.3,0.1-0.5,0.2-0.7,0.4c-0.2,0.2-0.4,0.4-0.5,0.7c-0.2,0.4-0.4,0.7-0.5,1.1
			l-10.2,24c-0.6,1.5-1.7,2.8-3,3.8c-1.2,0.9-2.7,1.4-4.3,1.4c-0.2,0-0.4-0.1-0.6-0.2c-0.1-0.1-0.2-0.3-0.2-0.5
			c0-0.4,0.1-0.8,0.2-1.2c0.1-0.4,0.2-0.8,0.4-1.1c0.1-0.3,0.3-0.6,0.6-0.8c0.2-0.2,0.4-0.3,0.7-0.3c0.2,0,0.5,0,0.7,0.1
			c0.2,0.1,0.5,0.1,0.7,0.1c0.7,0.1,1.4-0.1,2-0.5c0.5-0.5,0.9-1,1.1-1.7l2.5-5.9l-7.6-17c-0.2-0.5-0.4-0.8-0.6-1.1
			c-0.1-0.3-0.3-0.5-0.6-0.7c-0.2-0.2-0.4-0.3-0.7-0.4c-0.3-0.1-0.7-0.2-1-0.2c-0.4,0-0.7-0.4-0.7-0.8c0-0.1,0-0.2,0-0.3
			c0-0.1,0.1-0.2,0.1-0.3c0.7,0.1,1.3,0.1,2,0.1c0.7,0,1.4,0,2.3,0h1.5c0.8,0,1.5,0,2.2,0s1.4,0,2.1-0.1c0.1,0.1,0.1,0.2,0.1,0.3
			c0,0.1,0,0.2,0,0.3c0,0.4-0.2,0.6-0.7,0.7c-0.5,0.1-1,0.2-1.5,0.4c-0.2,0.1-0.4,0.4-0.4,0.6c0.1,0.4,0.2,0.8,0.3,1.2
			c0.3,0.8,0.6,1.7,1,2.5L126.5,70.2z"/>
		<path class="st0" d="M152.5,75.8l-2.6-0.2c-0.9-0.1-1.8-0.1-2.7-0.1s-1.8,0-2.8,0.1s-1.8,0.1-2.7,0.2c-0.1-0.3-0.1-0.5-0.1-0.8
			c0-0.3,0.2-0.5,0.4-0.6c0.7-0.1,1.4-0.3,2-0.6c0.5-0.1,0.9-0.6,0.9-1.2V46c0.1-0.8-0.1-1.6-0.6-2.2c-0.7-0.5-1.5-0.7-2.4-0.7
			c-0.4,0-0.6-0.3-0.6-0.7c0,0,0,0,0,0c0-0.2,0-0.5,0.1-0.7c0.4,0,1,0,1.8-0.1s1.5-0.1,2.1-0.2c0.7-0.1,1.4-0.2,2.1-0.4
			c0.4-0.1,0.9-0.2,1.3-0.2c0.2,0,0.4,0,0.6,0.2c0.1,0.2,0.2,0.3,0.1,0.5c0,0.7-0.1,1.3-0.1,2c-0.1,0.9-0.1,1.7-0.1,2.6v26.5
			c0,0.5,0.4,1,0.9,1.2c0.7,0.3,1.4,0.5,2.1,0.6c0.3,0.1,0.4,0.3,0.4,0.6C152.5,75.3,152.5,75.6,152.5,75.8z"/>
		<path class="st0" d="M176.8,71c0.2-0.2,0.5-0.3,0.8-0.3c0.3,0,0.6,0.3,0.9,0.8c-0.4,0.6-0.9,1.2-1.4,1.7c-0.6,0.6-1.3,1.1-2,1.5
			c-0.8,0.5-1.7,0.8-2.6,1.1c-1.1,0.3-2.3,0.4-3.4,0.4c-1.3,0-2.6-0.2-3.8-0.6c-1.2-0.4-2.3-1.1-3.1-2c-0.9-0.9-1.7-2.1-2.2-3.3
			c-0.6-1.5-0.9-3.1-0.8-4.7c0-1.6,0.3-3.2,1-4.7c0.6-1.4,1.5-2.6,2.5-3.7c1-1,2.1-1.8,3.4-2.4c1.1-0.5,2.4-0.8,3.6-0.8
			c3.1,0,5.3,0.9,6.7,2.7c1.5,2,2.2,4.5,2.1,7c0,0.1-0.1,0.3-0.2,0.3c0,0,0,0-0.1,0l-14.3,0.6c0,1.2,0.2,2.4,0.5,3.6
			c0.3,1,0.8,2,1.5,2.8c0.7,0.8,1.5,1.4,2.4,1.9c1,0.5,2.1,0.7,3.2,0.7c1,0,2.1-0.3,3-0.7C175.3,72.4,176.1,71.8,176.8,71z
			 M168.8,55.9c-1.5-0.1-3,0.7-3.9,1.9c-1,1.5-1.5,3.3-1.4,5.1l9.3-0.5c0.5,0,0.7-0.2,0.7-0.6c0-0.7-0.1-1.4-0.3-2
			c-0.2-0.7-0.5-1.3-0.9-1.9c-0.4-0.6-0.9-1.1-1.5-1.4C170.3,56,169.5,55.9,168.8,55.9L168.8,55.9z"/>
		<path class="st0" d="M67.5,2.8c-0.4-0.8-0.9-1.6-1.6-2.2c-0.1-0.1-0.3-0.1-0.4,0L48.9,7.8l-0.5-0.4c-2.6-2.1-5.4-3.7-8.5-4.9
			c-3.2-1.3-7.6-2-13.1-2c-3.5,0-6.9,0.6-10.2,1.9c-3.1,1.2-6,2.9-8.5,5.1c-2.4,2.1-4.4,4.6-5.9,7.4C0.8,17.6,0,20.5,0,23.5
			c-0.1,3.9,0.8,7.9,2.6,11.3c1,1.7,2.3,3.3,3.7,4.7l0.6,0.5l-0.3,0.7c-1.2,2.6-1.7,5.4-1.7,8.3c0,6.2,1.8,10.8,5.5,14s9,5.9,15.7,8
			c5.5,1.7,9.8,3.6,12.7,5.7c3.1,2.3,4.8,5.9,4.6,9.7c0.2,3.7-1.4,7.3-4.2,9.7c-2.8,2.3-6.7,3.5-11.7,3.5c-6.2,0-11.1-1.6-14.6-4.7
			c-3.5-3.2-5.7-7.7-6-12.5c0-0.5-0.4-0.9-0.8-1.1c-0.8-0.3-1.6-0.5-2.5-0.5H3.3c-0.1,0-0.2,0-0.3,0.1C3,80.9,3,81,3,81.1
			c0,2.9,0.1,5.7,0.2,8.5c0.2,3.1,0.3,6,0.5,8.7c0,0.1,0.1,0.2,0.2,0.3c3.6,1.9,7.4,3.2,11.4,3.9c4.1,0.8,8.3,1.2,12.4,1.3
			c4,0.1,8-0.5,11.7-1.8c3-1.1,5.8-2.7,8.2-4.8c2.1-1.9,3.7-4.3,4.8-6.9c1-2.6,1.6-5.5,1.6-8.3c0.1-3.1-0.5-6.1-1.7-8.9
			c-1-2.4-2.6-4.5-4.5-6.2c-2.1-1.8-4.5-3.3-7-4.4c-3-1.3-6.1-2.5-9.2-3.4c-6.5-2-10.9-4.1-13.4-6.2c-2.1-1.7-3.4-4-3.8-6.6
			l-0.3-1.7l1.7,0.5c1.4,0.4,2.8,0.7,4.3,0.9c2.2,0.3,4.4,0.4,6.6,0.4c3.9,0,7.8-0.6,11.5-1.7c3.3-1,6.5-2.6,9.3-4.7
			c2.5-1.9,4.6-4.4,6.1-7.2c1.5-2.8,2.3-5.9,2.2-9.1c0.1-4.4-1.2-8.7-3.8-12.2L51,9.8l1.7-0.4c2.6-0.6,5.3-1,8-1l6.1,0.2
			c1,0,1.4-0.8,1.4-2.6C68.2,4.9,67.9,3.8,67.5,2.8z M43.2,26.1c0,5-1.3,9-4,11.9c-2.8,3-6.7,4.6-10.8,4.4c-2.8,0.1-5.5-0.6-7.9-2
			c-2.1-1.3-3.8-3.1-5.1-5.3c-1.3-2.2-2.2-4.7-2.7-7.2C12.3,25.3,12,22.7,12,20c0-4.8,1.3-8.6,3.8-11.4c2.6-2.9,6.3-4.4,10.2-4.3
			c2.9-0.1,5.8,0.6,8.4,2c2.2,1.3,4,3.1,5.4,5.2c1.3,2.1,2.3,4.5,2.8,7C43,21,43.2,23.5,43.2,26.1z"/>
	</g>
</g>
</svg>
