<?xml version="1.0" encoding="UTF-8"?><svg xmlns="http://www.w3.org/2000/svg" viewBox="0 0 382 224.68"><defs><style>.d{fill:#ea605a;}</style></defs><g id="a"/><g id="b"><g id="c"><g><path class="d" d="M163.14,202.3c.81,.1,1.63,.29,2.44,.55,.81,.27,1.55,.64,2.21,1.13,.66,.48,1.19,1.09,1.6,1.81,.41,.73,.61,1.58,.61,2.57,0,1.12-.21,2.12-.63,3.01-.42,.89-1.02,1.64-1.79,2.25-.78,.61-1.71,1.08-2.8,1.41-1.09,.33-2.3,.5-3.62,.5h-6.03c-.43,0-.92,.01-1.47,.04-.55,.02-1.06,.05-1.54,.08-.56,.03-1.13,.05-1.72,.08-.02-.05-.04-.13-.04-.23-.03-.05-.04-.11-.04-.19v-.19c0-.35,.14-.56,.42-.61,.99-.2,1.68-.4,2.06-.59,.38-.19,.57-.54,.57-1.05v-19.41c0-.25-.04-.46-.13-.63-.09-.16-.24-.31-.44-.42-.2-.11-.47-.22-.8-.31-.33-.09-.75-.18-1.26-.29-.28-.05-.42-.29-.42-.72,0-.13,.01-.23,.04-.31,0-.08,.01-.15,.04-.23,.76,.05,1.58,.1,2.46,.13,.88,.04,1.62,.06,2.23,.06h4.69c1.42,0,2.64,.16,3.64,.48,1,.32,1.82,.76,2.46,1.32,.64,.56,1.1,1.2,1.39,1.92,.29,.72,.44,1.48,.44,2.27,0,.59-.11,1.16-.34,1.72-.23,.56-.54,1.08-.93,1.56-.39,.48-.87,.92-1.43,1.3-.56,.38-1.18,.67-1.87,.88v.11Zm-5.6-.5c2.24,0,3.85-.39,4.82-1.18,.98-.79,1.47-2.03,1.47-3.74,0-1.55-.49-2.7-1.47-3.45-.98-.75-2.59-1.12-4.82-1.12h-.57v9.49h.57Zm-.57,10.79c0,.28,.09,.51,.27,.69,.18,.18,.4,.32,.67,.42,.27,.1,.55,.17,.86,.21,.31,.04,.6,.06,.88,.06,.97,0,1.84-.08,2.63-.23,.79-.15,1.46-.42,2.02-.8,.56-.38,.99-.9,1.3-1.55,.3-.65,.46-1.47,.46-2.46,0-1.83-.63-3.22-1.89-4.16-1.26-.94-2.98-1.41-5.17-1.41h-2.02v9.23Z"/><path class="d" d="M189.31,211.98c.18-.18,.37-.27,.57-.27,.25,0,.49,.22,.72,.65-.33,.46-.71,.9-1.14,1.33-.43,.43-.95,.82-1.54,1.16-.6,.34-1.28,.62-2.04,.82-.76,.2-1.64,.31-2.63,.31s-1.98-.17-2.9-.5c-.91-.33-1.72-.84-2.42-1.53-.7-.69-1.26-1.54-1.68-2.55-.42-1.02-.63-2.21-.63-3.58,0-1.3,.25-2.49,.74-3.58,.49-1.09,1.14-2.03,1.92-2.8,.79-.77,1.66-1.38,2.61-1.81,.96-.43,1.88-.65,2.77-.65,2.36,0,4.09,.69,5.17,2.06,1.08,1.37,1.62,3.17,1.62,5.38,0,.15-.08,.23-.23,.23l-11.02,.5c0,.99,.14,1.91,.42,2.75,.28,.84,.67,1.56,1.18,2.17,.5,.61,1.12,1.09,1.84,1.43s1.54,.51,2.45,.51c.81,0,1.59-.19,2.34-.57,.75-.38,1.37-.86,1.88-1.45Zm-6.16-11.63c-1.27,0-2.25,.5-2.96,1.49-.71,.99-1.06,2.29-1.06,3.89l7.17-.34c.38,0,.57-.16,.57-.5,0-.48-.08-.99-.23-1.52-.15-.53-.38-1.02-.69-1.47-.3-.44-.69-.81-1.16-1.11-.47-.29-1.02-.44-1.65-.44Z"/><path class="d" d="M212.69,214.5c.28,0,.43,.27,.46,.8-.66,.46-1.5,.69-2.52,.69-.56,0-1.05-.08-1.46-.25-.41-.16-.76-.39-1.04-.67-.28-.28-.5-.6-.66-.95-.15-.36-.26-.73-.31-1.11-.64,1.14-1.39,1.92-2.27,2.34-.88,.42-1.89,.63-3.03,.63-.51,0-1.05-.04-1.62-.13-.57-.09-1.11-.27-1.62-.55-.51-.28-.93-.67-1.26-1.18-.33-.51-.49-1.18-.49-2.02,0-.94,.22-1.74,.67-2.38,.44-.65,1.02-1.18,1.71-1.6,.7-.42,1.46-.76,2.29-1.01,.83-.25,1.62-.47,2.38-.65,.43-.08,.83-.16,1.2-.25,.37-.09,.69-.18,.97-.29,.36-.1,.58-.24,.67-.42,.09-.18,.13-.52,.13-1.03,0-1.19-.23-2.18-.69-2.95-.46-.78-1.27-1.16-2.44-1.16-.43,0-.8,.05-1.11,.15-.3,.1-.56,.26-.76,.48-.2,.22-.38,.5-.53,.86-.15,.36-.31,.78-.46,1.26-.08,.28-.25,.48-.52,.61-.27,.13-.72,.28-1.35,.46-.15,.05-.34,.1-.57,.15-.23,.05-.42,.08-.57,.08-.25,0-.38-.27-.38-.8s.22-1.12,.65-1.68c.43-.56,.98-1.06,1.66-1.49,.67-.43,1.4-.78,2.19-1.05,.79-.27,1.54-.4,2.25-.4,.89,0,1.69,.08,2.41,.23,.71,.15,1.33,.43,1.84,.84,.51,.41,.91,.95,1.18,1.64,.27,.69,.41,1.57,.41,2.67v6.56c0,.89,.03,1.53,.1,1.93,.06,.39,.16,.71,.29,.93,.18,.36,.37,.59,.59,.71,.21,.11,.44,.17,.67,.17,.28,0,.48-.02,.59-.08,.11-.05,.24-.08,.36-.08Zm-5.8-7.44l-1.23,.19c-.66,.13-1.31,.28-1.94,.46-.63,.18-1.18,.43-1.67,.74-.49,.32-.88,.72-1.17,1.2-.3,.48-.44,1.08-.44,1.79,0,.97,.25,1.7,.75,2.21,.5,.51,1.12,.76,1.86,.76,.48,0,.97-.11,1.44-.32,.47-.22,.88-.52,1.23-.91,.35-.39,.63-.86,.84-1.39,.22-.53,.32-1.12,.32-1.75v-2.97Z"/><path class="d" d="M219.61,202.94c0-.84-.12-1.4-.36-1.7-.24-.29-.8-.48-1.66-.55-.33-.05-.49-.22-.49-.5,0-.15,.02-.33,.08-.53,.33,0,.77-.02,1.31-.06,.55-.04,1.01-.1,1.39-.17,.56-.08,1.05-.17,1.47-.29,.42-.11,.73-.17,.93-.17,.36,0,.53,.19,.53,.57v9.53c0,.63,.04,1.22,.11,1.75,.08,.53,.22,1,.42,1.39,.2,.39,.49,.7,.88,.91,.38,.22,.86,.32,1.45,.32,.63,0,1.26-.11,1.87-.32,.61-.22,1.15-.53,1.62-.95,.47-.42,.85-.93,1.13-1.54,.28-.61,.42-1.32,.42-2.13v-5.57c0-.81-.12-1.37-.36-1.68-.24-.31-.81-.5-1.7-.57-.33-.05-.49-.22-.49-.5,0-.15,.02-.33,.08-.53,.33,0,.77-.02,1.31-.06,.55-.04,1.02-.1,1.43-.17,.57-.08,1.05-.17,1.47-.29,.41-.11,.72-.17,.93-.17,.36,0,.54,.19,.54,.57v12.39c0,.43,.02,.78,.08,1.05,.05,.27,.15,.48,.3,.65,.15,.16,.36,.29,.63,.38,.27,.09,.62,.15,1.05,.17,.33,.05,.5,.22,.5,.5,0,.15-.03,.33-.08,.53-.48,0-.99,.04-1.53,.11-.53,.08-1.04,.15-1.53,.23-.49,.08-.92,.15-1.29,.23-.37,.08-.64,.11-.79,.11-.36,0-.54-.19-.54-.57v-3.16c-.08,.08-.29,.32-.65,.72-.36,.41-.82,.84-1.39,1.3-.57,.46-1.23,.87-1.98,1.24-.75,.37-1.56,.55-2.42,.55-1.55,0-2.71-.44-3.49-1.34-.78-.89-1.16-2.15-1.16-3.77v-7.93Z"/><path class="d" d="M250.84,213.28c.13-.13,.23-.2,.32-.23,.09-.02,.16-.04,.21-.04,.23,0,.43,.16,.61,.5-.66,.74-1.37,1.33-2.14,1.79-.76,.46-1.58,.69-2.44,.69-.51,0-.99-.06-1.45-.17-.46-.11-.85-.34-1.18-.67-.33-.33-.59-.78-.78-1.35-.19-.57-.29-1.32-.29-2.23v-10.52h-2.29v-.42c0-.18,.03-.34,.1-.5,.06-.15,.2-.23,.4-.23,.69,0,1.25-.18,1.68-.53,.43-.35,.79-.81,1.07-1.37,.31-.61,.57-1.18,.8-1.72,.23-.53,.48-.8,.76-.8h.69v3.97h4.46c0,.53-.06,.93-.17,1.2-.11,.27-.32,.4-.63,.4h-3.66v9.46c0,.81,.04,1.47,.11,1.96,.08,.5,.19,.88,.34,1.15,.15,.27,.33,.44,.53,.51,.2,.08,.43,.11,.69,.11,.43,0,.83-.1,1.2-.29,.37-.19,.72-.41,1.05-.67Z"/><path class="d" d="M266.33,211.37c.38-.97,.8-1.96,1.26-2.99,.46-1.03,.88-2,1.28-2.92,.39-.91,.72-1.74,.97-2.48,.25-.74,.38-1.28,.38-1.64,0-.23-.1-.4-.31-.52-.2-.11-.42-.22-.67-.31-.24-.09-.46-.18-.67-.27-.2-.09-.3-.23-.3-.44,0-.05,.01-.13,.04-.23,.03-.1,.05-.19,.08-.27,.99,.08,2.04,.11,3.16,.11,.58,0,1.09,0,1.53-.02,.43-.01,.84-.04,1.22-.1,.05,.08,.08,.17,.09,.27,.01,.1,.02,.18,.02,.23,0,.28-.16,.46-.49,.53-.38,.08-.68,.15-.89,.23-.22,.08-.4,.18-.53,.31-.14,.13-.27,.29-.38,.5-.11,.2-.25,.49-.4,.88l-7.82,18.46c-.51,1.22-1.27,2.19-2.29,2.9-1.02,.71-2.11,1.07-3.28,1.07-.2,0-.35-.06-.44-.17-.09-.11-.13-.25-.13-.4,0-.28,.04-.58,.11-.9,.08-.32,.18-.61,.31-.88,.13-.27,.27-.48,.44-.65,.16-.17,.33-.25,.51-.25,.2,0,.39,.02,.55,.06,.17,.04,.35,.06,.55,.06,.69,0,1.19-.13,1.53-.4,.33-.27,.62-.69,.88-1.28l1.94-4.54-5.87-13.08c-.18-.36-.33-.64-.46-.86-.13-.22-.27-.39-.42-.53-.15-.14-.33-.24-.53-.3-.2-.06-.47-.12-.8-.17-.33-.08-.49-.27-.49-.57,0-.05,0-.13,.02-.23,.01-.1,.04-.19,.09-.27,.51,.05,1.02,.08,1.54,.1,.52,.01,1.11,.02,1.77,.02h1.1c.61,0,1.18,0,1.72-.02,.53-.01,1.07-.04,1.6-.1,.05,.08,.08,.17,.09,.27,.01,.1,.02,.18,.02,.23,0,.31-.17,.47-.5,.5-.58,.1-.98,.21-1.18,.32-.2,.11-.3,.27-.3,.48,0,.13,.08,.44,.23,.95,.16,.51,.41,1.14,.76,1.91l3.35,7.4Z"/><path class="d" d="M297.01,203.67c-.2,0-.35-.04-.44-.13-.09-.09-.15-.18-.17-.29-.18-1.04-.59-1.78-1.24-2.23-.65-.44-1.46-.67-2.42-.67-.74,0-1.39,.21-1.96,.63-.57,.42-.86,1-.86,1.74,0,.66,.26,1.21,.78,1.66,.52,.44,1.47,.88,2.84,1.32,.74,.23,1.42,.48,2.04,.76,.62,.28,1.16,.62,1.6,1.01,.44,.39,.79,.88,1.05,1.45,.25,.57,.38,1.25,.38,2.04,0,.66-.12,1.3-.36,1.91-.24,.61-.61,1.14-1.11,1.6-.49,.46-1.12,.83-1.87,1.11-.75,.28-1.65,.42-2.69,.42-.81,0-1.72-.1-2.73-.29-1-.19-1.91-.51-2.73-.97-.05-.66-.1-1.35-.13-2.08-.04-.72-.06-1.46-.06-2.19h.38c.25,0,.47,.04,.65,.13,.18,.09,.28,.23,.31,.44,.1,1.07,.52,1.93,1.24,2.57,.72,.65,1.74,.97,3.03,.97,1.04,0,1.84-.24,2.4-.71,.56-.47,.84-1.11,.84-1.92s-.31-1.48-.92-1.92c-.61-.44-1.51-.85-2.71-1.2-1.5-.46-2.67-1.06-3.53-1.79-.85-.74-1.28-1.82-1.28-3.24,0-.66,.13-1.28,.38-1.87,.25-.59,.61-1.09,1.07-1.53,.46-.43,1.02-.77,1.68-1.03,.66-.25,1.4-.38,2.21-.38,1.02,0,1.98,.13,2.88,.4,.9,.27,1.61,.55,2.12,.86,.03,.2,.05,.45,.08,.74,.02,.29,.04,.6,.06,.91,.01,.32,.03,.64,.04,.95,.01,.32,.02,.6,.02,.86l-.88-.04Z"/><path class="d" d="M321.03,214.5c.28,0,.43,.27,.46,.8-.66,.46-1.5,.69-2.52,.69-.56,0-1.05-.08-1.46-.25-.41-.16-.76-.39-1.04-.67-.28-.28-.5-.6-.66-.95-.15-.36-.26-.73-.31-1.11-.64,1.14-1.39,1.92-2.27,2.34-.88,.42-1.89,.63-3.03,.63-.51,0-1.05-.04-1.62-.13-.57-.09-1.11-.27-1.62-.55-.51-.28-.93-.67-1.26-1.18-.33-.51-.49-1.18-.49-2.02,0-.94,.22-1.74,.67-2.38,.44-.65,1.02-1.18,1.71-1.6,.7-.42,1.46-.76,2.29-1.01,.83-.25,1.62-.47,2.38-.65,.43-.08,.83-.16,1.2-.25,.37-.09,.69-.18,.97-.29,.36-.1,.58-.24,.67-.42,.09-.18,.13-.52,.13-1.03,0-1.19-.23-2.18-.69-2.95-.46-.78-1.27-1.16-2.44-1.16-.43,0-.8,.05-1.11,.15-.3,.1-.56,.26-.76,.48-.2,.22-.38,.5-.53,.86-.15,.36-.31,.78-.46,1.26-.08,.28-.25,.48-.52,.61-.27,.13-.72,.28-1.35,.46-.15,.05-.34,.1-.57,.15-.23,.05-.42,.08-.57,.08-.25,0-.38-.27-.38-.8s.22-1.12,.65-1.68c.43-.56,.98-1.06,1.66-1.49,.67-.43,1.4-.78,2.19-1.05,.79-.27,1.54-.4,2.25-.4,.89,0,1.69,.08,2.41,.23,.71,.15,1.33,.43,1.84,.84,.51,.41,.91,.95,1.18,1.64,.27,.69,.41,1.57,.41,2.67v6.56c0,.89,.03,1.53,.1,1.93,.06,.39,.16,.71,.29,.93,.18,.36,.37,.59,.59,.71,.21,.11,.44,.17,.67,.17,.28,0,.48-.02,.59-.08,.12-.05,.24-.08,.36-.08Zm-5.8-7.44l-1.23,.19c-.67,.13-1.31,.28-1.94,.46-.63,.18-1.18,.43-1.67,.74-.49,.32-.88,.72-1.17,1.2-.3,.48-.44,1.08-.44,1.79,0,.97,.25,1.7,.75,2.21,.5,.51,1.12,.76,1.86,.76,.48,0,.97-.11,1.44-.32,.47-.22,.88-.52,1.23-.91,.35-.39,.63-.86,.84-1.39,.22-.53,.32-1.12,.32-1.75v-2.97Z"/><path class="d" d="M334.53,215.72c-.66-.05-1.34-.09-2.03-.13-.69-.04-1.38-.06-2.08-.06s-1.4,.02-2.13,.06c-.73,.04-1.41,.08-2.04,.13-.05-.25-.08-.46-.08-.61,0-.25,.11-.41,.34-.46,.56-.1,1.08-.25,1.56-.44,.48-.19,.73-.49,.73-.9v-20.51c0-.81-.16-1.37-.48-1.66-.32-.29-.92-.48-1.81-.55-.33-.05-.49-.23-.49-.53,0-.15,.02-.33,.08-.53,.33,0,.79-.02,1.37-.06,.59-.04,1.12-.08,1.6-.13,.59-.08,1.12-.18,1.58-.31,.46-.13,.8-.19,1-.19,.23,0,.39,.05,.46,.15,.08,.1,.12,.24,.12,.42,0,.43-.04,.93-.11,1.51-.08,.57-.12,1.24-.12,2v20.4c0,.41,.24,.71,.71,.9,.47,.19,1,.34,1.58,.44,.2,.05,.31,.2,.31,.46,0,.15-.03,.36-.08,.61Z"/><path class="d" d="M339.98,207.48c0-1.17,.22-2.27,.67-3.32,.44-1.04,1.05-1.94,1.81-2.71,.76-.76,1.66-1.37,2.69-1.81,1.03-.44,2.14-.67,3.33-.67s2.39,.21,3.43,.63c1.04,.42,1.94,1,2.69,1.74,.75,.74,1.33,1.63,1.75,2.69,.42,1.05,.63,2.2,.63,3.45s-.22,2.31-.67,3.34c-.44,1.03-1.05,1.93-1.81,2.69-.76,.76-1.66,1.37-2.69,1.81-1.03,.44-2.14,.67-3.34,.67s-2.39-.21-3.43-.63c-1.04-.42-1.94-1-2.69-1.74-.75-.74-1.34-1.63-1.75-2.67-.42-1.04-.63-2.2-.63-3.47Zm3.59-1.26c0,.94,.1,1.91,.31,2.9,.2,.99,.51,1.89,.93,2.69,.42,.8,.96,1.46,1.62,1.98,.66,.52,1.46,.78,2.4,.78,1.45,0,2.57-.51,3.37-1.53,.8-1.02,1.2-2.32,1.2-3.93,0-.94-.1-1.93-.29-2.95-.19-1.03-.5-1.97-.92-2.82-.42-.85-.97-1.56-1.64-2.12-.67-.56-1.5-.84-2.5-.84-1.35,0-2.43,.46-3.26,1.39-.82,.93-1.24,2.41-1.24,4.44Z"/><path class="d" d="M379.45,213.35c0,.38,.23,.67,.69,.86,.46,.19,.97,.34,1.53,.44,.23,.05,.34,.2,.34,.46,0,.15-.03,.36-.08,.61-.66-.05-1.31-.09-1.94-.13-.64-.04-1.32-.06-2.06-.06-.69,0-1.37,.02-2.04,.06-.68,.04-1.34,.08-2,.13-.05-.25-.08-.46-.08-.61,0-.25,.11-.41,.34-.46,.53-.1,1.02-.25,1.45-.44,.43-.19,.65-.48,.65-.86v-7.47c0-.63-.04-1.22-.11-1.75-.08-.53-.22-1-.44-1.39-.22-.39-.51-.7-.87-.91-.37-.22-.84-.32-1.42-.32-.63,0-1.25,.11-1.86,.32-.61,.22-1.14,.53-1.61,.95-.47,.42-.84,.93-1.12,1.54-.28,.61-.42,1.31-.42,2.1v6.94c0,.38,.22,.67,.67,.86,.44,.19,.92,.34,1.43,.44,.23,.05,.34,.2,.34,.46,0,.15-.03,.36-.08,.61-.66-.05-1.31-.09-1.95-.13-.64-.04-1.32-.06-2.04-.06s-1.45,.02-2.11,.06c-.66,.04-1.31,.08-1.95,.13-.05-.25-.08-.46-.08-.61,0-.25,.11-.41,.34-.46,.56-.1,1.07-.25,1.53-.44,.46-.19,.69-.49,.69-.9v-10.37c0-.76-.13-1.31-.4-1.64-.27-.33-.85-.53-1.74-.61-.33-.05-.49-.23-.49-.53,0-.13,.02-.29,.08-.5,.33,0,.79-.02,1.39-.06,.6-.04,1.09-.08,1.47-.13,.59-.1,1.12-.21,1.58-.32,.46-.11,.8-.17,1-.17,.36,0,.54,.19,.54,.57,0,.36-.04,.78-.11,1.28-.08,.5-.11,1.15-.11,1.96,1.09-1.22,2.13-2.16,3.14-2.82,1-.66,2.09-.99,3.28-.99,1.55,0,2.71,.45,3.48,1.35,.77,.9,1.16,2.15,1.16,3.76v9.27Z"/><path class="d" d="M141.57,5.87c-.79-1.81-1.91-3.3-3.43-4.55-.22-.18-.53-.23-.8-.11l-34.77,15.1-1.09-.89c-4.99-4.08-10.99-7.54-17.82-10.28-6.78-2.71-16.03-4.09-27.49-4.09-7.47,0-14.64,1.32-21.31,3.92-6.69,2.62-12.72,6.23-17.92,10.76-5.19,4.51-9.36,9.77-12.4,15.62C1.52,37.14,0,43.22,0,49.43c0,9.46,1.86,17.47,5.54,23.82,2.11,3.64,4.72,6.95,7.77,9.81l1.2,1.12-.67,1.5c-2.39,5.36-3.6,11.19-3.6,17.34,0,13.07,3.75,22.67,11.46,29.34,7.87,6.82,18.98,12.45,33,16.73,11.64,3.47,20.6,7.46,26.65,11.86,6.46,4.71,9.73,11.56,9.73,20.34s-2.98,15.29-8.87,20.24c-5.76,4.85-14.02,7.31-24.53,7.31-12.97,0-23.27-3.34-30.62-9.92-7.37-6.59-11.62-15.41-12.65-26.22-.14-1.11-.65-1.83-1.67-2.34-1.37-.68-3.11-1.03-5.17-1.03h-.56c-.21,0-.4,.08-.55,.23-.14,.14-.22,.34-.22,.55,.05,5.98,.23,11.98,.53,17.82,.35,6.56,.72,12.51,1.15,18.21,.02,.26,.17,.5,.41,.62,7.19,3.84,15.27,6.62,24,8.27,9.51,1.81,18.22,2.71,26.1,2.71,9.43,0,17.66-1.3,24.61-3.89,6.88-2.57,12.66-5.98,17.16-10.14,4.47-4.13,7.84-9.01,10.02-14.52,2.2-5.55,3.31-11.42,3.31-17.43,0-7.19-1.16-13.46-3.46-18.63-2.29-5.15-5.48-9.56-9.48-13.11-4.06-3.59-9.03-6.73-14.78-9.31-5.88-2.64-12.37-5.07-19.3-7.21-13.6-4.28-22.79-8.56-28.07-13.07-4.45-3.79-7.13-8.46-7.98-13.86l-.56-3.58,3.48,.99c2.89,.82,5.89,1.44,8.92,1.84,4.37,.57,9.03,.87,13.87,.87,8.46,0,16.57-1.22,24.1-3.62,7.51-2.38,14.07-5.72,19.49-9.9,5.38-4.15,9.7-9.21,12.84-15.04,3.11-5.78,4.69-12.21,4.69-19.11,0-10.05-2.7-18.64-8.02-25.51l-2.23-2.88,3.56-.79c6.51-1.45,12.17-2.19,16.78-2.19l12.87,.36c2.01,0,2.91-1.7,2.91-5.49,0-2.03-.53-4.28-1.58-6.7Zm-50.85,48.87c0,10.47-2.83,18.87-8.41,24.95-5.63,6.14-13.24,9.26-22.61,9.26-6.56,0-12.17-1.43-16.65-4.26-4.42-2.78-8.02-6.5-10.68-11.07-2.6-4.45-4.48-9.52-5.58-15.07-1.09-5.45-1.64-11.02-1.64-16.58,0-9.99,2.64-18.02,7.85-23.87,5.28-5.92,12.47-8.93,21.4-8.93,7,0,12.94,1.42,17.66,4.22,4.67,2.78,8.45,6.44,11.24,10.86,2.73,4.36,4.68,9.27,5.8,14.58,1.09,5.22,1.65,10.56,1.65,15.89Z"/><g><path class="d" d="M158.03,70.68c-2.99-1.73-4.48-4.23-4.48-7.5,0-3.47,2.29-6.31,6.87-8.54-1.94-1.18-3.49-2.76-4.63-4.74-1.14-1.98-1.72-4.42-1.72-7.34,0-1.94,.47-3.82,1.4-5.62,.94-1.8,2.2-3.4,3.8-4.79,1.6-1.39,3.42-2.48,5.47-3.28,2.05-.8,4.22-1.2,6.51-1.2,3.47,0,6.25,.42,8.33,1.25,2.08,.83,3.89,1.87,5.41,3.12l10.31-4.48c.76,.49,1.32,1.13,1.67,1.93,.35,.8,.52,1.55,.52,2.24,0,1.53-.52,2.29-1.56,2.29l-3.75-.1c-1.32,0-2.91,.21-4.79,.62,1.67,2.15,2.5,4.79,2.5,7.91,0,2.15-.49,4.13-1.46,5.93-.97,1.81-2.29,3.35-3.96,4.63-1.67,1.28-3.64,2.29-5.93,3.02-2.29,.73-4.72,1.09-7.29,1.09-1.46,0-2.85-.09-4.16-.26-1.32-.17-2.57-.47-3.75-.88-1.81,.83-3.06,1.67-3.75,2.5-.69,.83-1.04,1.63-1.04,2.39,0,.56,.17,1.09,.52,1.61,.35,.52,.99,.97,1.93,1.35,.94,.38,2.25,.69,3.96,.94,1.7,.24,3.87,.36,6.51,.36,3.12,0,6.07,.24,8.85,.73,2.77,.49,5.22,1.28,7.34,2.39,2.12,1.11,3.78,2.57,5,4.37,1.21,1.8,1.82,3.99,1.82,6.56,0,2.84-.57,5.41-1.72,7.7-1.14,2.29-2.74,4.25-4.79,5.88-2.05,1.63-4.51,2.88-7.39,3.75-2.88,.87-6.02,1.3-9.42,1.3-6.52,0-11.62-1.18-15.3-3.54-3.68-2.36-5.52-6.14-5.52-11.35,0-1.53,.24-2.93,.73-4.22,.48-1.28,1.09-2.45,1.82-3.49,.73-1.04,1.56-1.94,2.5-2.71,.94-.76,1.82-1.39,2.65-1.87Zm2.5,1.25c-1.67,1.6-2.6,3.61-2.81,6.04-.07,.55-.1,1.11-.1,1.67v1.77c.07,1.46,.45,2.91,1.14,4.37,.69,1.46,1.7,2.74,3.02,3.85,1.32,1.11,2.95,2.01,4.89,2.71,1.94,.69,4.2,1.04,6.77,1.04,4.79,0,8.28-1.06,10.46-3.17,2.19-2.12,3.28-4.74,3.28-7.86,0-1.32-.28-2.53-.83-3.64-.56-1.11-1.49-2.07-2.81-2.86-1.32-.8-3.05-1.42-5.2-1.87-2.15-.45-4.82-.68-8.02-.68-1.81,0-3.56-.1-5.26-.31-1.7-.21-3.21-.56-4.53-1.04Zm11.76-18.43c2.57,0,4.62-.83,6.14-2.5,1.52-1.67,2.29-3.96,2.29-6.87,0-1.53-.16-3.04-.47-4.53-.31-1.49-.85-2.84-1.62-4.06-.76-1.21-1.79-2.2-3.07-2.97-1.28-.76-2.9-1.15-4.84-1.15-2.43,0-4.36,.8-5.78,2.39-1.42,1.6-2.13,3.78-2.13,6.56,0,1.6,.16,3.17,.47,4.74,.31,1.56,.83,2.97,1.56,4.22,.73,1.25,1.7,2.26,2.91,3.02,1.21,.77,2.72,1.15,4.53,1.15Z"/><path class="d" d="M226.94,73.39c-1.81-.14-3.65-.26-5.53-.36-1.88-.1-3.77-.16-5.66-.16s-3.83,.05-5.82,.16c-1.98,.1-3.84,.22-5.58,.36-.14-.69-.21-1.25-.21-1.67,0-.69,.31-1.11,.94-1.25,1.52-.28,2.95-.68,4.27-1.2,1.32-.52,1.98-1.34,1.98-2.45V10.83c0-2.22-.43-3.73-1.3-4.53-.87-.8-2.52-1.3-4.95-1.51-.9-.14-1.35-.63-1.35-1.46,0-.42,.07-.9,.21-1.46,.9,0,2.15-.05,3.75-.16,1.6-.1,3.06-.22,4.38-.36,1.61-.21,3.05-.48,4.31-.83,1.26-.35,2.18-.52,2.74-.52,.63,0,1.05,.14,1.27,.42,.21,.28,.31,.66,.31,1.14,0,1.18-.1,2.55-.31,4.11-.21,1.56-.31,3.38-.31,5.47v55.69c0,1.11,.64,1.93,1.93,2.45,1.28,.52,2.72,.92,4.32,1.2,.56,.14,.83,.56,.83,1.25,0,.42-.07,.97-.21,1.67Z"/><path class="d" d="M236.11,50.9c0-3.19,.61-6.21,1.82-9.06,1.21-2.85,2.86-5.31,4.95-7.39,2.08-2.08,4.53-3.73,7.34-4.95,2.81-1.21,5.85-1.82,9.11-1.82s6.52,.57,9.37,1.72c2.84,1.14,5.29,2.72,7.34,4.74,2.05,2.01,3.64,4.46,4.79,7.34,1.15,2.88,1.72,6.02,1.72,9.42s-.61,6.3-1.82,9.11c-1.21,2.81-2.86,5.26-4.95,7.34-2.08,2.08-4.53,3.73-7.34,4.94-2.81,1.21-5.85,1.82-9.11,1.82s-6.52-.57-9.37-1.72c-2.85-1.14-5.29-2.72-7.34-4.74-2.05-2.01-3.64-4.44-4.79-7.29-1.14-2.84-1.72-6-1.72-9.47Zm9.78-3.43c0,2.57,.28,5.2,.83,7.91,.55,2.71,1.4,5.15,2.55,7.34,1.14,2.19,2.62,3.99,4.42,5.41,1.8,1.42,3.99,2.13,6.56,2.13,3.96,0,7.03-1.39,9.21-4.16,2.19-2.77,3.28-6.35,3.28-10.72,0-2.57-.26-5.26-.78-8.07-.52-2.81-1.35-5.38-2.5-7.7-1.14-2.32-2.64-4.25-4.48-5.78-1.84-1.53-4.11-2.29-6.82-2.29-3.68,0-6.65,1.27-8.9,3.8-2.26,2.53-3.38,6.58-3.38,12.13Z"/><path class="d" d="M341.45,61.52c.97-2.57,2.01-5.2,3.12-7.91,1.11-2.71,2.13-5.29,3.07-7.76,.94-2.46,1.7-4.72,2.29-6.77,.59-2.05,.88-3.7,.88-4.94,0-.63-.3-1.09-.88-1.41-.59-.31-1.23-.57-1.93-.78-.69-.21-1.34-.45-1.93-.73-.59-.28-.88-.69-.88-1.25,0-.48,.11-.94,.31-1.35,2.92,.21,5.83,.31,8.74,.31,1.39,0,2.64-.02,3.75-.05,1.11-.03,2.25-.12,3.44-.26,.14,.21,.22,.45,.26,.73,.03,.28,.05,.49,.05,.62,0,.9-.45,1.39-1.35,1.46-.77,.14-1.41,.3-1.93,.47-.52,.17-.99,.43-1.41,.78-.42,.35-.78,.83-1.09,1.46-.31,.62-.68,1.46-1.09,2.5l-14.47,37.27c-.56,.14-1.11,.21-1.67,.21s-.99-.17-1.3-.52c-.31-.35-.78-1.32-1.41-2.91l-11.66-28.31-12.28,31.54c-.69,.14-1.28,.21-1.77,.21-.76,0-1.37-.47-1.82-1.41-.45-.94-.96-2.06-1.51-3.38l-13.43-32.69c-.42-1.04-.8-1.87-1.15-2.5-.35-.63-.71-1.11-1.09-1.46-.38-.35-.83-.59-1.35-.73-.52-.14-1.13-.28-1.82-.42-.9-.21-1.35-.73-1.35-1.56,0-.48,.11-.94,.31-1.35,1.39,.14,2.88,.23,4.48,.26,1.59,.04,3.23,.05,4.89,.05h3.54c1.52,0,2.95-.03,4.27-.1,1.32-.07,2.67-.14,4.06-.21,.14,.21,.22,.45,.26,.73,.03,.28,.05,.49,.05,.62,0,.83-.45,1.28-1.35,1.35-3.19,.49-4.79,1.25-4.79,2.29,0,.9,.83,3.47,2.5,7.7l8.02,20.09,12.49-32.58c.28-.76,.69-1.15,1.25-1.15,.21,0,.52,.07,.94,.21l13.74,33.62Z"/><path class="d" d="M381.89,48.51c.07,.42,.1,.82,.1,1.2v1.09c0,1.18-.14,2.15-.42,2.91-.28,.76-.76,1.15-1.46,1.15h-17.32c-.14-.48-.23-1.08-.26-1.77-.04-.69-.05-1.21-.05-1.56,0-2.01,.63-3.02,1.87-3.02h17.53Z"/><path class="d" d="M181.07,126.28c-.56,0-.96-.12-1.2-.37-.24-.24-.4-.5-.47-.78-.49-2.84-1.61-4.88-3.38-6.09-1.77-1.21-3.97-1.82-6.61-1.82-2.01,0-3.8,.57-5.36,1.72-1.56,1.14-2.34,2.72-2.34,4.74,0,1.81,.71,3.31,2.13,4.53,1.42,1.21,4.01,2.41,7.76,3.59,2.01,.62,3.87,1.32,5.57,2.08,1.7,.76,3.16,1.68,4.37,2.76,1.21,1.08,2.17,2.39,2.86,3.96,.69,1.56,1.04,3.42,1.04,5.57,0,1.81-.33,3.54-.99,5.21-.66,1.67-1.67,3.12-3.02,4.37-1.35,1.25-3.05,2.26-5.1,3.02-2.05,.76-4.5,1.15-7.34,1.15-2.22,0-4.7-.26-7.44-.78-2.74-.52-5.22-1.41-7.44-2.65-.14-1.8-.26-3.7-.37-5.67-.1-1.98-.16-3.97-.16-5.98h1.04c.69,0,1.28,.12,1.77,.36,.49,.24,.76,.64,.83,1.2,.28,2.91,1.4,5.26,3.38,7.03,1.98,1.77,4.74,2.65,8.28,2.65,2.84,0,5.03-.64,6.56-1.93,1.52-1.28,2.29-3.04,2.29-5.26s-.83-4.04-2.5-5.26c-1.67-1.21-4.13-2.31-7.39-3.28-4.1-1.25-7.3-2.88-9.63-4.89-2.32-2.01-3.49-4.96-3.49-8.85,0-1.8,.35-3.5,1.04-5.1,.69-1.59,1.66-2.98,2.91-4.16,1.25-1.18,2.77-2.12,4.58-2.81,1.8-.69,3.82-1.04,6.04-1.04,2.77,0,5.4,.36,7.86,1.09,2.46,.73,4.39,1.51,5.78,2.34,.07,.56,.14,1.23,.21,2.03,.07,.8,.12,1.63,.16,2.5s.07,1.74,.11,2.6c.03,.87,.05,1.65,.05,2.34l-2.39-.1Z"/><path class="d" d="M226.97,152.51c.35-.35,.64-.56,.88-.63,.24-.07,.43-.11,.57-.11,.63,0,1.18,.45,1.67,1.35-1.81,2.01-3.75,3.64-5.83,4.89-2.08,1.25-4.3,1.88-6.66,1.88-1.39,0-2.71-.16-3.96-.47-1.25-.31-2.32-.92-3.23-1.82-.9-.9-1.61-2.13-2.13-3.7-.52-1.56-.78-3.59-.78-6.09v-28.73h-6.25v-1.15c0-.48,.09-.94,.26-1.35,.17-.42,.54-.62,1.09-.62,1.87,0,3.4-.49,4.58-1.46,1.18-.97,2.15-2.22,2.91-3.75,.83-1.67,1.56-3.23,2.19-4.68,.63-1.46,1.32-2.19,2.08-2.19h1.87v10.83h12.18c0,1.46-.16,2.55-.47,3.28-.31,.73-.88,1.09-1.72,1.09h-9.99v25.82c0,2.22,.11,4.01,.31,5.36,.21,1.35,.52,2.39,.94,3.12,.42,.73,.9,1.2,1.46,1.4,.56,.21,1.18,.31,1.87,.31,1.18,0,2.27-.26,3.28-.78,1.01-.52,1.96-1.13,2.86-1.82Z"/><path class="d" d="M269.61,147.31c1.04-2.64,2.19-5.36,3.43-8.17,1.25-2.81,2.41-5.47,3.49-7.96,1.07-2.5,1.96-4.75,2.65-6.77,.69-2.01,1.04-3.5,1.04-4.48,0-.63-.28-1.09-.83-1.41-.56-.31-1.16-.59-1.82-.83-.66-.24-1.27-.48-1.82-.73-.56-.24-.83-.64-.83-1.2,0-.14,.03-.35,.1-.63,.07-.28,.14-.52,.21-.73,2.71,.21,5.59,.31,8.64,.31,1.6,0,2.98-.02,4.16-.05,1.18-.03,2.29-.12,3.33-.26,.14,.21,.23,.45,.26,.73,.03,.28,.05,.49,.05,.63,0,.76-.45,1.25-1.35,1.46-1.04,.21-1.86,.42-2.45,.63-.59,.21-1.08,.49-1.46,.83-.38,.35-.73,.8-1.04,1.35-.31,.56-.68,1.35-1.09,2.39l-21.34,50.38c-1.39,3.33-3.47,5.97-6.25,7.91-2.78,1.94-5.76,2.91-8.95,2.91-.56,0-.95-.16-1.2-.47s-.36-.68-.36-1.09c0-.76,.1-1.58,.31-2.45,.21-.87,.48-1.67,.83-2.39,.35-.73,.75-1.32,1.2-1.77,.45-.45,.92-.68,1.41-.68,.55,0,1.06,.05,1.51,.16,.45,.1,.95,.16,1.51,.16,1.87,0,3.26-.37,4.16-1.09,.9-.73,1.7-1.89,2.39-3.49l5.31-12.39-16.03-35.71c-.49-.97-.9-1.75-1.25-2.34-.35-.59-.73-1.07-1.14-1.46-.42-.38-.9-.66-1.46-.83-.56-.17-1.28-.33-2.19-.47-.9-.21-1.35-.73-1.35-1.56,0-.14,.02-.35,.05-.63,.03-.28,.12-.52,.26-.73,1.39,.14,2.79,.23,4.22,.26,1.42,.04,3.03,.05,4.84,.05h3.02c1.66,0,3.23-.02,4.68-.05,1.46-.03,2.91-.12,4.37-.26,.14,.21,.23,.45,.26,.73,.03,.28,.05,.49,.05,.63,0,.83-.45,1.29-1.35,1.35-1.6,.28-2.67,.57-3.23,.88-.56,.31-.83,.75-.83,1.3,0,.35,.21,1.22,.63,2.6,.42,1.39,1.11,3.12,2.08,5.2l9.16,20.2Z"/><path class="d" d="M325.1,159.17c-1.81-.14-3.65-.26-5.53-.36-1.88-.1-3.77-.16-5.66-.16s-3.83,.05-5.82,.16c-1.98,.1-3.84,.22-5.58,.36-.14-.69-.21-1.25-.21-1.66,0-.69,.31-1.11,.94-1.25,1.52-.28,2.95-.68,4.27-1.2,1.32-.52,1.98-1.33,1.98-2.45v-56.01c0-2.22-.43-3.73-1.3-4.53-.87-.8-2.52-1.3-4.95-1.51-.9-.14-1.35-.63-1.35-1.46,0-.42,.07-.9,.21-1.46,.9,0,2.15-.05,3.75-.16,1.6-.1,3.06-.22,4.38-.36,1.61-.21,3.05-.48,4.31-.83,1.26-.35,2.18-.52,2.74-.52,.63,0,1.05,.14,1.27,.42,.21,.28,.31,.66,.31,1.14,0,1.18-.1,2.55-.31,4.11-.21,1.56-.31,3.38-.31,5.47v55.69c0,1.11,.64,1.93,1.93,2.45,1.28,.52,2.72,.92,4.32,1.2,.56,.14,.83,.56,.83,1.25,0,.42-.07,.97-.21,1.66Z"/><path class="d" d="M378.46,148.97c.48-.48,1-.73,1.55-.73,.69,0,1.35,.59,1.97,1.77-.9,1.25-1.94,2.46-3.12,3.64-1.18,1.18-2.59,2.24-4.22,3.17-1.63,.94-3.49,1.68-5.57,2.24-2.08,.56-4.48,.83-7.18,.83s-5.41-.45-7.91-1.35c-2.5-.9-4.7-2.29-6.61-4.16-1.91-1.87-3.44-4.2-4.58-6.97-1.15-2.77-1.72-6.04-1.72-9.79,0-3.54,.68-6.8,2.03-9.79,1.35-2.98,3.1-5.53,5.26-7.65,2.15-2.12,4.53-3.76,7.13-4.94,2.6-1.18,5.12-1.77,7.55-1.77,6.45,0,11.15,1.87,14.1,5.62,2.95,3.75,4.42,8.64,4.42,14.68,0,.42-.21,.63-.62,.63l-30.09,1.35c0,2.71,.38,5.21,1.14,7.49,.76,2.29,1.83,4.27,3.22,5.93,1.38,1.67,3.06,2.97,5.03,3.9,1.97,.94,4.2,1.4,6.69,1.4,2.21,0,4.34-.52,6.38-1.56,2.04-1.04,3.75-2.36,5.14-3.96Zm-16.83-31.75c-3.45,0-6.15,1.35-8.08,4.06-1.93,2.71-2.9,6.24-2.9,10.62l19.58-.94c1.04,0,1.55-.45,1.55-1.35,0-1.32-.21-2.71-.62-4.16-.42-1.46-1.04-2.79-1.87-4.01-.83-1.21-1.88-2.22-3.16-3.02-1.28-.8-2.78-1.2-4.51-1.2Z"/></g></g></g></g></svg>